/* XPM */
static char *_070334926334f7ed032d01458036812TdBVqVVUxFy3soLn[] = {
/* columns rows colors chars-per-pixel */
"20 20 4 1 ",
"  c #656C17",
". c #72751B",
"X c #787B21",
"o c #7F8226",
/* pixels */
"............Xo. XX. ",
".............oXX X.X",
"............. XX.  X",
".............. X..  ",
"............... .XX.",
".................o .",
"................. ..",
"....................",
"....................",
"....................",
"....................",
"....................",
"....................",
"....................",
"....................",
"....................",
"....................",
"....................",
"....................",
"...................."
};
