/* XPM */
static char *df87c5b169b249f8de4bc8438de44517Sce0W5w3Gvf0lAgG[] = {
/* columns rows colors chars-per-pixel */
"64 64 14 1 ",
"  c #CACACA",
". c gray81",
"X c #D0D0D0",
"o c gray83",
"O c gray85",
"+ c #DFDFDF",
"@ c #E1E1E1",
"# c #E7E7E7",
"$ c gray92",
"% c #ECECEC",
"& c gray95",
"* c gray97",
"= c #F9F9F9",
"- c white",
/* pixels */
"----------------------------------------------------------------",
"----------------------------------------------------------------",
"----------------------------------------------------------------",
"----------------------------------------------------------------",
"----------------------------------------------------------------",
"----------------------------------------------------------------",
"--------------------**---------------==-------------------------",
"--------------------O$--------------%X%-------------------------",
"-------**-----------*---------------*$=-------------------------",
"------*X.#------------------------------------------------------",
"------*.X%------------------------------------------------------",
"-------%*-------------------------------------------------------",
"----------------------------------------------------------------",
"----------------------------------------------------------------",
"--------------------=*%#@@%=------------------------------------",
"-------------------%o.  . .o%--------------------=&-------------",
"-----------------=@.   .  . X=------------------$o.%------------",
"-----------------*.  .. .  ..%------------------@ .&------------",
"-----------------=@.     .. .$------------------&X@-------------",
"-------------------#X. . .   $-------------------==-------------",
"--------=-----------*X. . ...&----------------------------------",
"-------=O%-----------+ .    O-----------------------------------",
"--------@&-----------+ . ...%-----------------------------------",
"---------------------+  .  @------------------------------------",
"---------------------%X. .+=------------------------------------",
"----------------------*@+%--------------------------------------",
"----------------------------------------------------------------",
"----------------------------------------------------------------",
"------------------------------------&=--------------------------",
"-----------------------------------@.X%-------------------------",
"----------------------------------%...&-------------------------",
"----------------------------------+.o%--------------------------",
"-----------=$%=-------------------&&----------------------------",
"----------&O .o*------------------------------------------------",
"--------*O. .  X*-----------------------------------------------",
"--------@ .  . .O-----------------------------------------------",
"-------=o.   .  .&----------------------------------------------",
"-------=o. . ..  @-------------------------------=&*=-----------",
"--------#.. .  . O-----------=------------------%O..O=----------",
"--------=O.   . .o---------=@o@=---------------&X.XO$=----------",
"---------=+ . .  o=--------$.  O*--------------=%&*-------------",
"----------*o . ..o--------=o    +-------------------------------",
"-----------$ .   O--------*..  ..$------------------------------",
"-----------=o .  @--------%. ..  O=-----------------------------",
"------------#. ..%--------+   .  .%-----------------------------",
"------------=o  O---------O ..  . @-----------------------------",
"-------------&OO*---------#.   . .O-----------------------------",
"---------------=-----------%O. .  o-----------------------------",
"----------------------------=&+X. +-----------------------------",
"-------------------------------*%%*-----------------------------",
"-----------------------------------------------*$$%-------------",
"---------------------------------------------*@.  .@------------",
"--------------------------------------------&o ..  X*-----------",
"---------------&#$=-------------------------+ . .  .$-----------",
"--------------&X .+------------------------=o..   . #-----------",
"--------------@ . .%-----------------------=o  ..  .%-----------",
"--------------$  . #------------------------+ . .  X*-----------",
"--------------=#Oo+*------------------------*X    .+------------",
"---------------------------------------------%X . X*------------",
"----------------------------------------------&+XO&-------------",
"------------------------------------------------=---------------",
"----------------------------------------------------------------",
"----------------------------------------------------------------",
"----------------------------------------------------------------"
};
