/* XPM */
static char *result[] = {
/* columns rows colors chars-per-pixel */
"64 64 192 2 ",
"   c #151515",
".  c gray10",
"X  c gray14",
"o  c #282828",
"O  c #2A2A2A",
"+  c gray17",
"@  c #2C2C2C",
"#  c gray18",
"$  c gray19",
"%  c #313131",
"&  c #323232",
"*  c gray20",
"=  c #353535",
"-  c gray22",
";  c gray23",
":  c #3C3C3C",
">  c gray24",
",  c #3E3E3E",
"<  c gray25",
"1  c #414141",
"2  c gray26",
"3  c #434343",
"4  c #444444",
"5  c #464646",
"6  c gray28",
"7  c #484848",
"8  c #494949",
"9  c gray29",
"0  c #4B4B4B",
"q  c gray30",
"w  c #4E4E4E",
"e  c gray31",
"r  c #505050",
"t  c #515151",
"y  c gray32",
"u  c #535353",
"i  c gray33",
"p  c #555555",
"a  c #565656",
"s  c gray34",
"d  c #585858",
"f  c gray35",
"g  c #5A5A5A",
"h  c #5B5B5B",
"j  c gray36",
"k  c #5D5D5D",
"l  c gray37",
"z  c #5F5F5F",
"x  c gray38",
"c  c #626262",
"v  c gray39",
"b  c #646464",
"n  c #656565",
"m  c gray40",
"M  c #676767",
"N  c #686868",
"B  c DimGray",
"V  c #6A6A6A",
"C  c gray42",
"Z  c #6C6C6C",
"A  c #6D6D6D",
"S  c gray43",
"D  c #6F6F6F",
"F  c #717171",
"G  c #727272",
"H  c gray45",
"J  c #747474",
"K  c gray46",
"L  c #777777",
"P  c gray47",
"I  c #797979",
"U  c gray48",
"Y  c #7B7B7B",
"T  c #7C7C7C",
"R  c #7E7E7E",
"E  c gray50",
"W  c #808080",
"Q  c #818181",
"!  c #838383",
"~  c #848484",
"^  c gray52",
"/  c #868686",
"(  c #888888",
")  c #898989",
"_  c gray54",
"`  c #8B8B8B",
"'  c gray55",
"]  c #8E8E8E",
"[  c gray56",
"{  c #909090",
"}  c #939393",
"|  c gray58",
" . c #959595",
".. c gray59",
"X. c #979797",
"o. c #989898",
"O. c gray60",
"+. c #9A9A9A",
"@. c #9B9B9B",
"#. c gray61",
"$. c #9D9D9D",
"%. c gray62",
"&. c #A0A0A0",
"*. c gray64",
"=. c #A4A4A4",
"-. c #A5A5A5",
";. c gray65",
":. c #A7A7A7",
">. c gray66",
",. c #A9A9A9",
"<. c #AAAAAA",
"1. c #ACACAC",
"2. c gray68",
"3. c #AEAEAE",
"4. c #AFAFAF",
"5. c gray69",
"6. c #B1B1B1",
"7. c #B2B2B2",
"8. c #B4B4B4",
"9. c gray71",
"0. c #B6B6B6",
"q. c #B7B7B7",
"w. c gray72",
"e. c gray73",
"r. c #BBBBBB",
"t. c gray74",
"y. c gray",
"u. c gray75",
"i. c #C0C0C0",
"p. c #C1C1C1",
"a. c gray76",
"s. c #C3C3C3",
"d. c gray77",
"f. c #C5C5C5",
"g. c #C6C6C6",
"h. c gray78",
"j. c #C8C8C8",
"k. c gray79",
"l. c #CACACA",
"z. c #CBCBCB",
"x. c gray80",
"c. c #CDCDCD",
"v. c #CECECE",
"b. c gray81",
"n. c #D0D0D0",
"m. c gray82",
"M. c #D2D2D2",
"N. c LightGray",
"B. c gray83",
"V. c #D5D5D5",
"C. c gray84",
"Z. c #D7D7D7",
"A. c #D8D8D8",
"S. c gray85",
"D. c #DADADA",
"F. c gray86",
"G. c gainsboro",
"H. c #DDDDDD",
"J. c gray87",
"K. c #DFDFDF",
"L. c gray88",
"P. c #E1E1E1",
"I. c #E2E2E2",
"U. c gray89",
"Y. c #E4E4E4",
"T. c gray90",
"R. c #E6E6E6",
"E. c #E7E7E7",
"W. c gray91",
"Q. c #E9E9E9",
"!. c #EAEAEA",
"~. c gray92",
"^. c #ECECEC",
"/. c gray93",
"(. c #EEEEEE",
"). c #EFEFEF",
"_. c gray94",
"`. c #F1F1F1",
"'. c gray95",
"]. c #F3F3F3",
"[. c #F4F4F4",
"{. c gray96",
"}. c #F6F6F6",
"|. c gray97",
" X c #F8F8F8",
".X c #F9F9F9",
"XX c gray98",
"oX c #FBFBFB",
"OX c gray99",
"+X c #FDFDFD",
"@X c #FEFEFE",
"#X c white",
/* pixels */
"#X#X#X#X#X#X#X#X#X#X#X#X#X#X#X#X#X#X#X#X#X#X#X#X#X#X#X#X#X#X#X#X#X#X#X#X#X#X#X#X#X#X#X#X#X#X#X#X#X#X#X#X#X#X#X#X#X#X#X#X#X#X#X#X",
"#X#X#X#X#X#X#X#X#X#X#X#X#X#X#X#X#X#X#X#X#X#X#X#X#X#X#X#X#X#X#X#X#X#X#X#X#X#X#X#X#X#X#X#X#X#X#X#X#X#X#X#X#X#X#X#X#X#X#X#X#X#X#X#X",
"#X#X#X#X#X#X#X#X#X#X#X#X#X#X#X#X#X#X#X#X#X#X#X#X#X#X#X#X#X#X#X#X#X#X#X#X#X#X#X#X#X#X#X#X#X#X#X#X#X#X#X#X#X#X#X#X#X#X#X#X#X#X#X#X",
"#X#X#X#X#X#X#X#X#X#X#X#X#X#X#X#X#X#X#X#X#X#X#X#X#X#X#X#X#X#X#X#X#X#X#X#X#X#X#X#X#X#X#X#X#X#X#X#X#X#X#X#X#X#X#X#X#X#X#X#X#X#X#X#X",
"#X#X#X#X#X#X#X#X#X#X#X#X#X#X#X#X#X#X#X#X#X#X#X#X#X#X#X#X#X#X#X#X#X#X#X#X#X#X#X#X#X#X#X#X#X#X#X#X#X#X#X#X#X#X#X#X#X#X#X#X#X#X#X#X",
"#X#X#X#X#X#X#X#X#X#X#X#X#X#X#X#X#X#X#X#X#X#X#X#X#X#X#X#X#X#X#X#X#X#X#X#X#X#X#X#X#X#X#X#X#X#X#X#X#X#X#X#X#X#X#X#X#X#X#X#X#X#X#X#X",
"#X#X#X#X#X#X#X#X#X#X#X#X#X#X#X#X#X#X#X#X}..X#X#X#X#X#X#X#X#X#X#X#X#X#X#X+X|.+X#X#X#X#X#X#X#X#X#X#X#X#X#X#X#X#X#X#X#X#X#X#X#X#X#X",
"#X#X#X#X#X#X#X#X#X#X#X#X#X#X#X#X#X#X#XOXF.!.#X#X#X#X#X#X#X#X#X#X#X#X#X#X_.m./.#X#X#X#X#X#X#X#X#X#X#X#X#X#X#X#X#X#X#X#X#X#X#X#X#X",
"#X#X#X#X#X#X@X}.|.+X#X#X#X#X#X#X#X#X#X@X X+X#X#X#X#X#X#X#X#X#X#X#X#X#X#X|.!.XX#X#X#X#X#X#X#X#X#X#X#X#X#X#X#X#X#X#X#X#X#X#X#X#X#X",
"#X#X#X#X#X#X}.M.n.W.#X#X#X#X#X#X#X#X#X#X#X#X#X#X#X#X#X#X#X#X#X#X#X#X#X#X#X#X#X#X#X#X#X#X#X#X#X#X#X#X#X#X#X#X#X#X#X#X#X#X#X#X#X#X",
"#X#X#X#X#X#X{.b.n.(.#X#X#X#X#X#X#X#X#X#X#X#X#X#X#X#X#X#X#X#X#X#X#X#X#X#X#X#X#X#X#X#X#X#X#X#X#X#X#X#X#X#X#X#X#X#X#X#X#X#X#X#X#X#X",
"#X#X#X#X#X#X+X_.[.#X#X#X#X#X#X#X#X#X#X#X#X#X#X#X#X#X#X#X#X#X#X#X#X#X#X#X#X#X#X#X#X#X#X#X#X#X#X#X#X#X#X#X#X#X#X#X#X#X#X#X#X#X#X#X",
"#X#X#X#X#X#X#X#X#X#X#X#X#X#X#X#X#X#X#X#X#X#X#X#X#X#X#X#X#X#X#X#X#X#X#X#X#X#X#X#X#X#X#X#X#X#X#X#X#X#X#X#X#X#X#X#X#X#X#X#X#X#X#X#X",
"#X#X#X#X#X#X#X#X#X#X#X#X#X#X#X#X#X#X#X#X#X#X#X#X#X#X#X#X#X#X#X#X#X#X#X#X#X#X#X#X#X#X#X#X#X#X#X#X#X#X#X#X#X#X#X#X#X#X#X#X#X#X#X#X",
"#X#X#X#X#X#X#X#X#X#X#X#X#X#X#X#X#X#X#X#XOX].~.T.I.Y.^..X#X#X#X#X#X#X#X#X#X#X#X#X#X#X#X#X#X#X#X#X#X#X#X#X#X#X#X#X#X#X#X#X#X#X#X#X",
"#X#X#X#X#X#X#X#X#X#X#X#X#X#X#X#X#X#X@X(.A.b.x.z.z.z.x.B._.#X#X#X#X#X#X#X#X#X#X#X#X#X#X#X#X#X#X#X#XXX[.OX#X#X#X#X#X#X#X#X#X#X#X#X",
"#X#X#X#X#X#X#X#X#X#X#X#X#X#X#X#X#XOXP.v.z.x.x.x.x.x.x.z.B..X#X#X#X#X#X#X#X#X#X#X#X#X#X#X#X#X#X#X~.B.b./.#X#X#X#X#X#X#X#X#X#X#X#X",
"#X#X#X#X#X#X#X#X#X#X#X#X#X#X#X#X#X].v.x.x.x.x.x.x.x.x.x.x./.#X#X#X#X#X#X#X#X#X#X#X#X#X#X#X#X#X#XP.l.v.`.#X#X#X#X#X#X#X#X#X#X#X#X",
"#X#X#X#X#X#X#X#X#X#X#X#X#X#X#X#X#XOXL.c.x.x.x.x.x.x.x.x.x.Q.#X#X#X#X#X#X#X#X#X#X#X#X#X#X#X#X#X#X`.M.P.+X#X#X#X#X#X#X#X#X#X#X#X#X",
"#X#X#X#X#X#X#X#X#X#X#X#X#X#X#X#X#X#X+XQ.m.x.x.x.x.x.x.x.x.^.#X#X#X#X#X#X#X#X#X#X#X#X#X#X#X#X#X#X@X X+X#X#X#X#X#X#X#X#X#X#X#X#X#X",
"#X#X#X#X#X#X#X@X X@X#X#X#X#X#X#X#X#X#X#X].N.x.x.x.x.x.x.b.[.#X#X#X#X#X#X#X#X#X#X#X#X#X#X#X#X#X#X#X#X#X#X#X#X#X#X#X#X#X#X#X#X#X#X",
"#X#X#X#X#X#X#XoXA./.#X#X#X#X#X#X#X#X#X#X#XL.z.x.x.x.x.z.D.+X#X#X#X#X#X#X#X#X#X#X#X#X#X#X#X#X#X#X#X#X#X#X#X#X#X#X#X#X#X#X#X#X#X#X",
"#X#X#X#X#X#X#X+XU.].#X#X#X#X#X#X#X#X#X#X#XK.z.x.x.x.x.v.).#X#X#X#X#X#X#X#X#X#X#X#X#X#X#X#X#X#X#X#X#X#X#X#X#X#X#X#X#X#X#X#X#X#X#X",
"#X#X#X#X#X#X#X#X#X#X#X#X#X#X#X#X#X#X#X#X#XJ.z.x.x.x.x.I.@X#X#X#X#X#X#X#X#X#X#X#X#X#X#X#X#X#X#X#X#X#X#X#X#X#X#X#X#X#X#X#X#X#X#X#X",
"#X#X#X#X#X#X#X#X#X#X#X#X#X#X#X#X#X#X#X#X#X_.m.z.z.c.L.oX#X#X#X#X#X#X#X#X#X#X#X#X#X#X#X#X#X#X#X#X#X#X#X#X#X#X#X#X#X#X#X#X#X#X#X#X",
"#X#X#X#X#X#X#X#X#X#X#X#X#X#X#X#X#X#X#X#X#X#X].I.L.(.+X#X#X#X#X#X#X#X#X#X#X#X#X#X#X#X#X#X#X#X#X#X#X#X#X#X#X#X#X#X#X#X#X#X#X#X#X#X",
"#X#X#X#X#X#X#X#X#X#X#X#X#X#X#X#X#X#X#X#X#X#X#X#X#X#X#X#X#X@X[.).#X#X#XOX.XOX#X#X#X#X#X#X#X#X#X#X#X#X#X#X#X#X#X#X#X#X#X#X#X#X#X#X",
"#X#X#X#X#X#X#X#X#X#X#X#X#X#X#X#X#X#X#X#X#X#X#X#X#X#X#X#X#X].9. .z.!.I.y.1.F.#X#X#X#X#X#X#X#X#X#X#X#X#X#X#X#X#X#X#X#X#X#X#X#X#X#X",
"#X#X#X#X#X#X#X#X#X#X#X#X#X#X#X#X#X#X#X#X#X#X#X#X#X#X#X#X#XY.Q z ! ] ' I A 7.#X#X#X#X#X#X#X#X#X#X#X#X#X#X#X#X#X#X#X#X#X#X#X#X#X#X",
"#X#X#X#X#X#X#X#X#X#X#X#X#X#X#X#X#X#X#X#X#X#X#X#X#X#X#X#X@XK./ U ) T / ( H ..).#X#X#X#X#X#X#X#X#X#X#X#X#X#X#X#X#X#X#X#X#X#X#X#X#X",
"#X#X#X#X#X#X#X#X#X#X#X#X#X#X#X#X#X#X#X#X#X#X#X#X#X#X@X'./.Z.! y h l z u n -.(.+X@X#X#X#X#X#X#X#X#X#X#X#X#X#X#X#X#X#X#X#X#X#X#X#X",
"#X#X#X#X#X#X#X#X#X#X#X#X#X#X#X{.~.~.(.|.OX#X#X#X#XOXW.$.F A u > o . X & 0 ^ 4.6.k._..XoXoXOX+X@X@X#X#X#X#X#X#X#X#X#X#X#X#X#X#X#X",
"#X#X#X#X#X#X#X#X#X#X#XXX!.^.).-.n v Z O.F.`.Q.I.D.n.#.e i I T L Z c c n m B C s p } r.d.z.N.D.L.R.!.).|.@X#X#X#X#X#X#X#X#X#X#X#X",
"#X#X#X#X#X#X#X#X#X@X'.A.x.x.f.Z a ~ z : m E T P D x t B w.!.^.W.Y.L.F.C.m.k.s.%.m j m n v c c c c b b [ H.@X#X#X#X#X#X#X#X#X#X#X",
"#X#X#X#X#X#X#X#X}.F.n.z.x.x.w.p ( J.s./ Y E W ~ _ ..=.d.).#X#X#X#X#X#X#X#X@X#X`.c.0.4.,.*.%.o.} { ] Z p 5.oX#X#X#X#X#X#X#X#X#X#X",
"#X#X#X#X#X#X#X#XI.z.x.x.x.z.q.0 ..).[.K.B.c.s.8.*.} R  .G.@X#X#X#XoXY.D.Q.OX#X|.N.i.s.j.x.n.N.V.Z.F.4.j $.{.#X#X#X#X#X#X#X#X#X#X",
"#X#X#X#X#X#X#XoXC.z.x.x.x.z.8.2 P w.s.y.<.) C d e 0 + 5 a.XX@X@X#X|.n.t.Z.oX#Xj.G a j v V F P R ~ ' S 7 :.|.#X#X#X#X#X#X#X#X#X#X",
"#X#X#X#X#X#X#XoXV.z.x.x.x.z.6.; A @.[ m 7 8 g G } 5.A t 7.L.T.E.!.~.L.F.T./.c.A 3 k c f r 8 2 : - * O s c.@X#X#X#X#X#X#X#X#X#X#X",
"#X#X#X#X#X#X#X#XT.x.x.x.x.z.3.= b ( f , J :.n.).}.J.z s / ..@.&.=.>.4.4.+.K d k #.A.I.J.F.Z.N.v.y.;.@.2.B. X#X#X#X#X#X#X#X#X#X#X",
"#X#X#X#X#X#X#X#XoXG.x.x.x.z.2.* * < # v H.+X+X#XOX| 5 n r 6 2 w y s / ( 8 q ` g.'.OX@X+X+X+X+X(.v.x.b.C.E.OX#X#X#X#X#X#X#X#X#X#X",
"#X#X#X#X#X#X#X#X#XXXF.x.x.x.a.^ G F W q.@X#X#X#Xb.u f d O =   6 f + N T < | /.XX@X#X#X#X#X#X#X.X_.'.|.+X#X#X#X#X#X#X#X#X#X#X#X#X",
"#X#X#X#X#X#X#X#X#X#X XV.z.x.z.g.p.j.W.[.#X#X#X[.( 4 H : + 5 $ %.e.9 M Y 5 9.#X#X#X#X#X#X#X#X#X#X#X#X#X#X#X#X#X#X#X#X#X#X#X#X#X#X",
"#X#X#X#X#X#X#X#X#X#X#X~.x.x.x.x.z.D.@X#X#X#X#Xs.q g L @ 8 g V e.6., 8 d ; w.#X#X#X#X#X#X#X#X#X#X#X#X#X#X#X#X#X#X#X#X#X#X#X#X#X#X",
"#X#X#X#X#X#X#X#X#X#X#XXXB.z.x.x.z.U.#X#X#X#X).Q o s d % &.j.h.z.8.a > 1 d x.#X#X#X#X#X#X#X#X#X#X#X#X#X#X#X#X#X#X#X#X#X#X#X#X#X#X",
"#X#X#X#X#X#X#X#X#X#X#X#XT.x.x.x.c._.#X#X#X#XR.! 3 t 1 < ,.z.x.x.j.2.9.r.h.`.#X#X#X#X#X#X#X#X#X#X#X#X#X#X#X#X#X#X#X#X#X#X#X#X#X#X",
"#X#X#X#X#X#X#X#X#X#X#X#X.XC.z.z.D.OX#X#X#X@X|.A.u.e.+.X.u.z.x.x.x.z.L.OXOX#X#X#X#X#X#X#X#X#X#X#X#X#X#X#X#X#X#X#X#X#X#X#X#X#X#X#X",
"#X#X#X#X#X#X#X#X#X#X#X#X#X].S.D.{.#X#X#X#X#X#X#X#X#XT.v.z.x.x.x.x.z.D.+X#X#X#X#X#X#X#X#X#X#X#X#X#X#X#X#X#X#X#X#X#X#X#X#X#X#X#X#X",
"#X#X#X#X#X#X#X#X#X#X#X#X#X#X+X+X#X#X#X#X#X#X#X#X#X#X@X).S.c.z.x.x.z.Z.OX#X#X#X#X#X#X#X#X#X#X#X#X#X#X#X#X#X#X#X#X#X#X#X#X#X#X#X#X",
"#X#X#X#X#X#X#X#X#X#X#X#X#X#X#X#X#X#X#X#X#X#X#X#X#X#X#X#XOX).J.M.c.x.H.@X#X#X#X#X#X#X#X#X#X#X#X#X#X#X#X#X#X#X#X#X#X#X#X#X#X#X#X#X",
"#X#X#X#X#X#X#X#X#X#X#X#X#X#X#X#X#X#X#X#X#X#X#X#X#X#X#X#X#X#X@X X_./. X#X#X#X#X#X#X#X#X#X#X#X#X#X#X#X#X#X#X#X#X#X#X#X#X#X#X#X#X#X",
"#X#X#X#X#X#X#X#X#X#X#X#X#X#X#X#X#X#X#X#X#X#X#X#X#X#X#X#X#X#X#X#X#X#X#X#X#X#X#X#X#X#X#X#X#X#X#X|.^.E.).+X#X#X#X#X#X#X#X#X#X#X#X#X",
"#X#X#X#X#X#X#X#X#X#X#X#X#X#X#X#X#X#X#X#X#X#X#X#X#X#X#X#X#X#X#X#X#X#X#X#X#X#X#X#X#X#X#X#X#X|.P.m.x.z.c.I.@X#X#X#X#X#X#X#X#X#X#X#X",
"#X#X#X#X#X#X#X#X#X#X#X#X#X#X#X#X#X#X#X#X#X#X#X#X#X#X#X#X#X#X#X#X#X#X#X#X#X#X#X#X#X#X#X#X[.V.z.x.x.x.x.b.[.#X#X#X#X#X#X#X#X#X#X#X",
"#X#X#X#X#X#X#X#X#X#X#X#X#X#X#X].T./.OX#X#X#X#X#X#X#X#X#X#X#X#X#X#X#X#X#X#X#X#X#X#X#X#X@XH.z.x.x.x.x.x.x.~.#X#X#X#X#X#X#X#X#X#X#X",
"#X#X#X#X#X#X#X#X#X#X#X#X#X#X`.m.z.c.L.+X#X#X#X#X#X#X#X#X#X#X#X#X#X#X#X#X#X#X#X#X#X#X#XXXB.z.x.x.x.x.x.x.Q.#X#X#X#X#X#X#X#X#X#X#X",
"#X#X#X#X#X#X#X#X#X#X#X#X#X#XK.z.x.x.c./.#X#X#X#X#X#X#X#X#X#X#X#X#X#X#X#X#X#X#X#X#X#X#XoXC.z.x.x.x.x.x.c.(.#X#X#X#X#X#X#X#X#X#X#X",
"#X#X#X#X#X#X#X#X#X#X#X#X#X#XW.x.z.z.z.E.#X#X#X#X#X#X#X#X#X#X#X#X#X#X#X#X#X#X#X#X#X#X#X#XL.z.x.x.x.x.x.m.|.#X#X#X#X#X#X#X#X#X#X#X",
"#X#X#X#X#X#X#X#X#X#X#X#X#X#XOXT.S.A.L. X#X#X#X#X#X#X#X#X#X#X#X#X#X#X#X#X#X#X#X#X#X#X#X#X[.M.z.x.x.x.z.J.@X#X#X#X#X#X#X#X#X#X#X#X",
"#X#X#X#X#X#X#X#X#X#X#X#X#X#X#X#X+X+X#X#X#X#X#X#X#X#X#X#X#X#X#X#X#X#X#X#X#X#X#X#X#X#X#X#X#X(.m.z.x.z.N.{.#X#X#X#X#X#X#X#X#X#X#X#X",
"#X#X#X#X#X#X#X#X#X#X#X#X#X#X#X#X#X#X#X#X#X#X#X#X#X#X#X#X#X#X#X#X#X#X#X#X#X#X#X#X#X#X#X#X#X#X'.G.N.D.'.#X#X#X#X#X#X#X#X#X#X#X#X#X",
"#X#X#X#X#X#X#X#X#X#X#X#X#X#X#X#X#X#X#X#X#X#X#X#X#X#X#X#X#X#X#X#X#X#X#X#X#X#X#X#X#X#X#X#X#X#X#X+XXX+X#X#X#X#X#X#X#X#X#X#X#X#X#X#X",
"#X#X#X#X#X#X#X#X#X#X#X#X#X#X#X#X#X#X#X#X#X#X#X#X#X#X#X#X#X#X#X#X#X#X#X#X#X#X#X#X#X#X#X#X#X#X#X#X#X#X#X#X#X#X#X#X#X#X#X#X#X#X#X#X",
"#X#X#X#X#X#X#X#X#X#X#X#X#X#X#X#X#X#X#X#X#X#X#X#X#X#X#X#X#X#X#X#X#X#X#X#X#X#X#X#X#X#X#X#X#X#X#X#X#X#X#X#X#X#X#X#X#X#X#X#X#X#X#X#X",
"#X#X#X#X#X#X#X#X#X#X#X#X#X#X#X#X#X#X#X#X#X#X#X#X#X#X#X#X#X#X#X#X#X#X#X#X#X#X#X#X#X#X#X#X#X#X#X#X#X#X#X#X#X#X#X#X#X#X#X#X#X#X#X#X"
};
