/* XPM */
static char *result[] = {
/* columns rows colors chars-per-pixel */
"64 64 205 2 ",
"   c #090907",
".  c #0E0D0C",
"X  c #120C05",
"o  c #120E0B",
"O  c #1A1107",
"+  c #14110E",
"@  c #1D1309",
"#  c #1F180F",
"$  c #100F10",
"%  c #151413",
"&  c #181614",
"*  c #1B1916",
"=  c #171818",
"-  c #1D1C1B",
";  c #22160A",
":  c #25190C",
">  c #2C1C0D",
",  c #321E0D",
"<  c #241C13",
"1  c #2A1E12",
"2  c #211F1D",
"3  c #34210F",
"4  c #3A230F",
"5  c #2D2113",
"6  c #23211E",
"7  c #2C241B",
"8  c #342412",
"9  c #3B2612",
"0  c #332816",
"q  c #3D2A15",
"w  c #322619",
"e  c #35291D",
"r  c #3D2C19",
"t  c #252422",
"y  c #2A2724",
"u  c #2C2925",
"i  c #2D2C2A",
"p  c #342C23",
"a  c #322F2B",
"s  c #3D3327",
"d  c #32302F",
"f  c #3C342B",
"g  c #363533",
"h  c #383735",
"j  c #3B3937",
"k  c #3D3B3A",
"l  c #412711",
"z  c #442B13",
"x  c #4A2E14",
"c  c #422E18",
"v  c #4D3116",
"b  c #45311A",
"n  c #4A351B",
"m  c #4C341A",
"M  c #533316",
"N  c #593717",
"B  c #533619",
"V  c #593718",
"C  c #55391C",
"Z  c #5B3B1B",
"A  c #623E1C",
"S  c #433324",
"D  c #463525",
"F  c #4C3924",
"G  c #443A2E",
"H  c #4C3C2B",
"J  c #543C22",
"K  c #5A3E22",
"L  c #523D28",
"P  c #433B33",
"I  c #4A3F34",
"U  c #413F3D",
"Y  c #5E401F",
"T  c #65411D",
"R  c #6C441E",
"E  c #70471F",
"W  c #72481E",
"Q  c #4E402E",
"!  c #5D4124",
"~  c #5A4626",
"^  c #55412B",
"/  c #5D452B",
"(  c #4B4136",
")  c #44403C",
"_  c #4D453C",
"`  c #534434",
"'  c #5D4934",
"]  c #504538",
"[  c #54493D",
"{  c #5C4C3B",
"}  c #644423",
"|  c #6B4621",
" . c #664825",
".. c #6C4A24",
"X. c #624629",
"o. c #644A29",
"O. c #6E4D29",
"+. c #714720",
"@. c #744B23",
"#. c #794E23",
"$. c #714F28",
"%. c #67502C",
"&. c #6A512D",
"*. c #765026",
"=. c #7C5126",
"-. c #74522A",
";. c #7C552A",
":. c #7D592E",
">. c #614F3B",
",. c #65513C",
"<. c #6B553B",
"1. c #745730",
"2. c #7C5930",
"3. c #735A3C",
"4. c #454443",
"5. c #494644",
"6. c #4A4946",
"7. c #4D4C4A",
"8. c #534B42",
"9. c #5C4F40",
"0. c #514E4C",
"q. c #5E5346",
"w. c #53514F",
"e. c #5C554C",
"r. c #555452",
"t. c #585755",
"y. c #5C5854",
"u. c #635444",
"i. c #695845",
"p. c #665849",
"a. c #6A5B4C",
"s. c #715C41",
"d. c #655D54",
"f. c #605F5E",
"g. c #7A6248",
"h. c #676058",
"j. c #6C645C",
"k. c #746658",
"l. c #646361",
"z. c #6B6762",
"x. c #6D6965",
"c. c #6C6B6A",
"v. c #756D65",
"b. c #766F68",
"n. c #797067",
"m. c #75706A",
"M. c #797169",
"N. c #757372",
"B. c #797671",
"V. c #7F7B76",
"C. c #7C7C7B",
"Z. c #825526",
"A. c #81562A",
"S. c #835A2C",
"D. c #8A5B2B",
"F. c #8B6030",
"G. c #876C4D",
"H. c #807264",
"J. c #8A7C6D",
"K. c #907C68",
"L. c #847C74",
"P. c #827E78",
"I. c #8B8279",
"U. c #8C847C",
"Y. c #938576",
"T. c #96897B",
"R. c #9B8D7E",
"E. c #A08462",
"W. c #A2917F",
"Q. c #8F8984",
"!. c #8C8C8B",
"~. c #948C84",
"^. c #988F85",
"/. c #928F8C",
"(. c #999086",
"). c #95918E",
"_. c #989591",
"`. c #A69380",
"'. c #A59F98",
"]. c #A9A29A",
"[. c #B0A396",
"{. c #B7AA9C",
"}. c #ADAAA6",
"|. c #B3ADA6",
" X c #B5B2AF",
".X c #B8B5B2",
"XX c #C3B6A7",
"oX c #C4C1BE",
"OX c #CCCAC7",
"+X c #D3CBC3",
"@X c #D0CECB",
"#X c #DBD3CA",
"$X c #D2D1D1",
"%X c #DAD9D7",
"&X c #DBD9D7",
"*X c #E1DFDC",
"=X c #E4E0DC",
"-X c #E8E7E5",
";X c #ECEBEA",
":X c #F0EEEC",
">X c #F3F1EF",
",X c #F4F4F3",
"<X c #F8F7F6",
"1X c #F9F8F7",
"2X c #FFFFFF",
/* pixels */
"2X2X2X2X2X2X2X2X2X2X2X2X2X2X2X2X2X2X2X2X2X2X2X2X2X2X2X2X2X2X2X2X2X2X2X2X2X2X2X2X2X2X2X2X2X2X2X2X2X2X2X2X2X2X2X2X2X2X2X2X2X2X2X2X",
"2X2X2X2X2X2X2X2X2X2X2X2X2X2X2X2X2X2X2X2X2X1X1X;X@X}.P.8.p < # X # : : w S e.I.}.@X;X<X2X2X2X2X2X2X2X2X2X2X2X2X2X2X2X2X2X2X2X2X2X",
"2X2X2X2X2X2X2X2X2X2X2X2X2X2X2X2X2X2X2X1X,X$X].m._ p < @ O # O O : , : : : > 5 s [ M.].$X>X2X2X2X2X2X2X2X2X2X2X2X2X2X2X2X2X2X2X2X",
"2X2X2X2X2X2X2X2X2X2X2X2X2X2X2X2X2X2X;XoXI.) 7 ; : ; ; ; < u < # 0 e p w 3 3 3 > , , e { U.oX:X2X2X2X2X2X2X2X2X2X2X2X2X2X2X2X2X2X",
"2X2X2X2X2X2X2X2X2X2X2X2X2X2X2X2X,XOXP.k : @ ; > > 1 , , e 6.p 1 b H r.P q x z q z 9 9 8 9 [ ~.@X,X2X2X2X2X2X2X2X2X2X2X2X2X2X2X2X",
"2X2X2X2X2X2X2X2X2X2X2X2X2X2X2X&X_._ : @ ; : > 4 8 9 q q 0 s e 8 ^ ! H m B V C B B M x m l 9 c u.'.*X2X2X2X2X2X2X2X2X2X2X2X2X2X2X",
"2X2X2X2X2X2X2X2X2X2X2X2X2X,XXXc.e @ : > > 3 q z b m v v z v m q o.*.T T T T | ! } A A Z B M m q F H.OX<X2X2X2X2X2X2X2X2X2X2X2X2X",
"2X2X2X2X2X2X2X2X2X2X2X2X;X]._ < : ; 3 3 9 q v C C Z B Z B Z Z c &.;.W E R E | ..| @.| @.A A C m v c i.|.:X2X2X2X2X2X2X2X2X2X2X2X",
"2X2X2X2X2X2X2X,X<X2X2X;X/.G ; : 1 5 9 z z v N T ! T Z Z Z T Z c &.D.;.W R R @.O.#.#.@.#.+.| } J Z v c ' ].;X2X2X2X2X2X2X2X2X2X2X",
"2X2X2X2X2X2X,X$X$X-X;XQ.p : > , 9 9 v M B N T W  .T T T B C C r &.A...R W W | O.$.@.#.=.#.@.@.} A Z M z >.[.>X2X2X2X2X2X2X2X2X2X",
"2X2X2X2X2X2X,X$X$X*X).p ; > 8 4 n n N Z Y T R =.*.T Y Z / j.` b &.3.k.,.T R R O.*.@.@.A.=.#.$.| | T N N M <.{.,X2X2X2X2X2X2X2X2X",
"2X2X2X2X2X2X2X>X-X_.h ; > 8 z v C Y T R T T R W $.} T Z ` M.[ r %.3.N.u.T R ..O.*.@.@.A.Z.#.*.$.@.| A A A A g..X<X2X2X2X2X2X2X2X",
"2X2X2X2X2X2X2X1X.X_ ; > , z B Z R } ..R R R R @.$.T Y Z m Q D r &.-.X./ R T T O.;.@.@.Z.=.#.*.$.@.E T R T | ..G.+X2X2X2X2X2X2X2X",
"2X2X2X2X2X2X2X@Xy.: : 3 9 m Z R ..O.*.R R R E *.$. .T C Z n n r &.S.@.| E T } -.;.#.@.=.#.Z.A.$.@.R R E E |  .X.J.=X2X2X2X2X2X2X",
"2X2X2X2X2X2X;XP.< @ 5 9 x Z T W =.$.*.R R E E *.*. .Z C Z B n r &.S.@.W R A T -.;.@.@.=.#.Z.A.$.@.R R E R | } Y X.[.,X2X2X2X2X2X",
"2X2X2X2X2X1X Xf @ > 9 z B T | @.:.*.=.R R E R @.$. .C Z Y Z C b &.S.@.W R T } -.;.#.@.#.#.#.S.$.@.R R E R ....} m g.+X2X2X2X2X2X",
"2X2X2X2X2X&Xz.; ; 5 z M Z R @.=.D.*.=.W R R R @.-. .Z Y C C m r &.;.| | R T | -.D.#.W #.@.=.S.-.#.E R R | | | } B K R.:X2X2X2X2X",
"2X2X2X2X1X}.p ; : 9 B Y T E W =.S.-.;.W E R A $.*...C C ^ j.` r &.3.j.>.T T ..;.A.#.@.#.W ;.S.-.#.E @.A | | O.} J Z 3.+X1X2X2X2X",
"2X2X2X2X-Xj.@ : 3 r Z R T W *.W S.-.;.W R T A @.;.O.C C ' B.8.r &.s.B.u.T R @.-.S.A.W #.W Z.S.-.#.@.R A T | $.} B C T `.:X2X2X2X",
"2X2X2X1X Xp ; > 9 n } @.E W W =.S.$.;.W R T A $.-.$.J Z C F m b &.-.! ! R R $.-.S.Z.W #.W Z.S.-.#.@.+.A Y @.$.| J C A G.#X2X2X2X",
"2X2X2X:XV.@ : , z m O.=.W #.#.#.S.O.=.@.E T A @.-.O.C Z T Z Z b 1.S.R T W R $.;.F.A.@.W @.Z.D.*.#.@.+.A A @.$.| J Z A  .{.<X2X2X",
"2X2X2X%X_ @ > 9 v K O.=.@.W @.#.S.-.;.E E T Z @.-.} C Y T Z Z b &.S.@.T R R @.-.S.Z.#.#.W Z.S.&.#.+.+.+.Y @.$.} C Z A Z K.-X2X2X",
"2X2X1X.X7 ; > 9 v K #.Z.#.W #.Z.S.-.=.R | R T @.&.R Z Z Z Z Z b &.A.W T E E @.$.D.D.#.W #.Z.S.-.#.R +.A A $.$.} C A A Z 3.+X2X2X",
"2X2X<X~.@ : 3 z B } ;.D.#.#.#.Z.S.-.=.R E T A ..O. .Z T Z ! B b &.;. .Y E R @.O.=.D.#.W =.A.S.-.@.R | A T @.$.} Z A A !  .XX2X2X",
"2X2X;Xj.2 i 0 z Z  .;.D.=.#.#.A.F.-.=.R R T T E ..} Z T ' n.[ q O.s.M.u.R W @.$.*.D.=.@.=.A.S.-.#.E W T T $.$.} K A ,.n.,.W.2X2X",
"2X2X@X_ < u 0 M Z ..;.S.=.#.;.A.S.-.*.E R R R @.O.} Y Z ` z.` r &.<.z.{ R @.@...#.D.;.#.=.D.:.*.@.| E T T #.$.} Z A >.z.>.E.2X2X",
"2X2X}.p ; 1 q Z T  .#.A.A.=.=.Z.;...@.R R T | | O. .Z T Z L n q &.-.X.} W #.@.O.#.;.;.=.=.Z.;.@.@.R R R E @.$.} Z } K L Y G.2X2X",
"2X2X_.5 : , z B T  .| $.$.#.| W *. .E T T T T R  .} B Z Z Z m q o.-.T T R E |  ...@.#.$.| @.O...| A A A T |  .} Z Z Z V Z 1.2X2X",
"2X2X).- * 7 s ( 9.p.k.H.J.Y.T.R.R.R.R.T.T.T.T.R.R.R.J.n.h.i.q.P G i.p.a.k.J.T.W.^.R.R.T.R.R.R.R.R.R.T.Y.J.H.k.p.q.9.] I G H 2X2X",
"2X2X!.$ . - y t u i g k 0.f.w.6.7.w.w.7.t.z.t.7.w.7.6.4.w.6.j t t j U w.t.6.7.0.7.7.f.j.w.0.0.0.0.0.t.f.6.U g a i i k d 2 - 2X2X",
"2X2X!.  $ k 6.= = = - = 6.C.h - - - - - ) C.4.= - - - t m.l.6 % = 6 i N.l.= - - - - t.C.i - - - - 2 6.C.j & - - = i N.t.& % 2X2X",
"2X2X!.    6 t . + % + . 6 U * o + + % + - k 6 . + + + + h d $ . + % % h i o + + % . y j & + % + % o t k = . + % o % j u . . 2X2X",
"2X2X/.+ ; : , 4 q q q c q q q z q q q 0 9 q q q 0 0 9 8 0 8 8 : 0 b q q q 9 q q q q q c q z q q q q q q q q 0 q 8 8 8 8 0 r 2X2X",
"2X2X/.w 8 z B A |  .@.#.@.@.@.#.*. .@.A T | +.| ..} T Z B Z Z r &.A.#.| | | .. .#.@.@.@.@.#.$.O.| A A | @.| | } Z Z Z Z T :.2X2X",
"2X2X).w 9 z C A | O.*.#.@.@.@.#.-...@.T R R @.@...| T B Z Z C b &.D.#.@.+.| @.O.=.#.#.@.@.=.;. .@.A T +.@.@...R A B Z Z ! 2.2X2X",
"2X2X).w q c B A | O.=.#.#.#.#.#.;.O.#.A R R R =.-.} T B C ^ C b &.S.&. .| | @.$.=.#.#.#.@.#.;.$.| A R R | #.O.} A C J / } :.2X2X",
"2X2X).w p 5.F A | $.;.=.=.=.*.#.A.&.@.Z T R W *.-...Z m ` b.] r o.3.b.u.A E @.$.A.#.=.#.#.=.;.-.| A R R @.#.O.} Z m { M.>.:.2X2X",
"2X2X).5 p U F A | $.;.Z.=.=.#.*.S.O.@.Z T R W #.$.} C v ` z.` r &.3.z.9.| @.@.;.Z.=.;.;.@.=.;.-.| Z A R +.@...T B m { z.' :.2X2X",
"2X2X).w , q B A | O.=.#.;.*.@.*.:.O.| Z T E W @.$.} B n B B B q &.2. .| +.+.$.$.=.@.=.#.#.=.;.O.| Z | | +.@...} m m C C K 2.2X2X",
"2X2X).w 9 x M A | O.*.#.#.#.@.;.;...| T R R R @.O.} F B T A C c O.F.Z.@.+.| $.$.;.@.#.#.$.=.*.O.+.A R R +.@...K m C T Z T ;.2X2X",
"2X2X).0 8 x N Z T ..#.@.@.@.#.#.;.} | T R R R W  .Y C B T A Z c &.F.*.@.R A R O.@.@.@.W #.#.$...W A R R R @.| K B J A Z T :.2X2X",
"2X2X).5 3 z M N A } $.+.E +.#.#.;. .E T T T T R } Z m B A Z B r &.:.@.+.R A T | @.R E @.#.#.$...W A A T T | } Z B B A Z A ;.2X2X",
"2X2X).5 3 e z V A } +.+.R #.@.W ;.} R T A T T T ! Z B N B L n q o.$./ ! A Z Y T R R E @.@.#.....E A A A A | } C B B K ^ K -.2X2X",
"2X2X).5 7 U S v Z K | | A @.E E @.T T Z N A T T T C B M ^ x._ q o.,.x.{ Z Z Z } R T R @.| +...| A V A A A T } C B B ' x.' -.2X2X",
"2X2X).5 < p r v B K T A A | | T | } A V N A N A K C B v S [ S q / / [ H B M B Y T A A R T E | A A Z V A A A C B M v F [ H  .2X2X",
"2X2X).5 1 8 z x M C A A A A A A | A A Z N A N Z C B x v x c c 9 ~ ..Z B Z M B C A A A A A A } K A V N N V Z C M v v b b B  .2X2X",
"2X2X).< > 8 c m B K ! ! K } } } o./ X.K K ! ! } ! K J J m F n e J  .K C J C ! o.o. .! X.} X. .X.X.! ! K K K J J m m m m m ~ 2X2X",
"2X2X).= < u P ) 5.8.p.v.L.U.~.~.^.~.~.~./.~.~.~.^.Q.L.n.f.p.e.P f e.e.h.v.L.Q.(.^.~.~.~.~.^.^.^.^.~.~.U.L.v.d.y.e.8.8.[ 5.I 2X2X",
"2X2X!.. $ i g 2 2 t y i 4.f.4.j j k k k 6.l.6.k k k h h r.7.d 2 6 d g r.w.h j k k k r.l.4.j k k k k 0.f.U a i y t y 4.h - = 2X2X",
"2X2X!.  $ 5.7.= = = & & U N.d = & & = & h c.h o = % = - l.t.= + = - t c.t.% = = & % 7.c.y % = = & & U c.d + = & = t z.0.% $ 2X2X",
"2X2X!..   * < o o + + o * u & . o o + o & u * o $ + o o t 6 o . + + + u 6 o + + + . - u % + + + + o * u % o + o $ + y 2 . o 2X2X",
"2X2X/.* @ ; > , 8 8 9 z 9 4 8 9 9 8 9 3 8 , , 4 8 8 , 3 , > > @ 0 9 4 > 3 4 9 9 9 q 4 4 4 9 9 3 9 3 4 , 3 8 9 5 , , , 1 , , 2X2X",
"2X2X).8 > , x v C C A A N N N N Z m Z N M M x B B B v x x x z > C T C v M N N B Y T N N N Z Z M Z M M M x M J M x x x z x B 2X2X",
"2X2X).8 > 8 l x B B C Z M N N Z Z m B M M M x M v b v z z z z : n Y M v M M M m Z Z M N N N C n V M M M v M B v x z z z x m 2X2X",
"2X2X).8 > > 9 x B b M N x M M M C z M x x x x x m m x l 4 9 l : n Z z z v M M n M N x M M N B n M x x x x x c b x z q l z m 2X2X",
"2X2X).5 < p 8 l x c x M x z x M M l M z x z l x c z l 9 e ( e ; b C _ S l x v v v M z z x M v z x z x l l z z z l 4 e ( b b 2X2X",
"2X2X/.1 < i > 4 z q c v z z z x x 9 z l z l 4 l l l l , e 7.p O r D 7.s 9 z x z x x l z z x z q x l l l 4 l q 9 9 4 p 4.e z 2X2X",
"2X2X/.1 + < > 3 9 9 z l 4 4 l l q 8 q 4 4 3 , 4 4 4 , , 1 w 1 # 0 r e 8 4 4 q 9 z z 4 4 l l 9 3 l 4 4 , 3 9 9 9 , , , 8 3 q 2X2X",
"2X2X/.< ; ; ; , , 8 9 4 , 4 , 4 9 > 4 , , , , , 3 3 , > > > > @ 9 q 3 > 3 3 3 3 4 4 3 3 4 4 3 3 , , , , , , 8 > , > > > > 8 2X2X",
"2X2X/.; O O ; > > , , , , , , , 3 > , > , , ; , > > > > ; ; : O 5 4 3 > , > , , , , , , , , 3 , , , , > > > > > > > ; ; > > 2X2X",
"2X2X!.+ X X X O O O # @ ; ; ; O ; O @ @ @ @ O @ @ O O O O O O X O ; ; O O O ; O O ; O ; O ; # @ ; O ; O O @ @ @ @ O O O O O 2X2X",
"2X2X2X2X2X2X2X2X2X2X2X2X1X2X2X1X2X2X2X2X2X2X2X2X2X2X2X2X2X2X2X2X2X2X2X2X2X2X2X2X2X2X2X2X2X2X2X2X2X2X2X2X2X2X2X2X2X2X2X2X2X2X2X2X",
"2X2X2X2X2X2X2X2X2X2X2X2X2X2X2X2X2X2X2X2X2X2X2X2X2X2X2X2X2X2X2X2X2X2X2X2X2X2X2X2X2X2X2X2X2X2X2X2X2X2X2X2X2X2X2X2X2X2X2X2X2X2X2X2X",
"2X2X2X2X2X2X2X2X2X2X2X2X2X2X2X2X2X2X2X2X2X2X2X2X2X2X2X2X2X2X2X2X2X2X2X2X2X2X2X2X2X2X2X2X2X2X1X2X2X2X2X2X2X2X2X2X2X2X2X2X2X2X2X2X"
};
