/* XPM */
static char *result[] = {
/* columns rows colors chars-per-pixel */
"64 64 151 2 ",
"   c #020202",
".  c #090A07",
"X  c #070808",
"o  c #0B0C0B",
"O  c #0F1208",
"+  c #171B0E",
"@  c #181C0D",
"#  c #0F0F10",
"$  c #131312",
"%  c #191B14",
"&  c #1C1C1B",
"*  c #1C200E",
"=  c #1D2013",
"-  c #1E201A",
";  c #212615",
":  c #242A14",
">  c #23251C",
",  c #262A1D",
"<  c #292E1C",
"1  c #2B3316",
"2  c #2D331B",
"3  c #30371A",
"4  c #343B1B",
"5  c #242424",
"6  c #2A2C24",
"7  c #2D2D2C",
"8  c #2E3122",
"9  c #303421",
"0  c #353C22",
"q  c #33362A",
"w  c #393E2C",
"e  c #302F30",
"r  c #333333",
"t  c #393A35",
"y  c #3B3B3B",
"u  c #3B441F",
"i  c #3F491F",
"p  c #3B4323",
"a  c #3F4924",
"s  c #3B4128",
"d  c #3E4038",
"f  c #414C22",
"g  c #454F29",
"h  c #465124",
"j  c #4A5626",
"k  c #465029",
"l  c #4B562A",
"z  c #4E5B29",
"x  c #515D2C",
"c  c #444933",
"v  c #42443C",
"b  c #4C5531",
"n  c #4D5438",
"m  c #55632C",
"M  c #58662E",
"N  c #5A682E",
"B  c #546033",
"V  c #596533",
"C  c #5E6D33",
"Z  c #5E6B39",
"A  c #606F31",
"S  c #626E3B",
"D  c #647434",
"F  c #677835",
"G  c #6A7B37",
"H  c #6C7D39",
"J  c #403F40",
"K  c #434343",
"L  c #494946",
"P  c #4C4B4B",
"I  c #4F504E",
"U  c #595F47",
"Y  c #575A4F",
"T  c #535453",
"R  c #5C5E57",
"E  c #5C5C5C",
"W  c #5E6056",
"Q  c #69724E",
"!  c #707D49",
"~  c #616458",
"^  c #727B5B",
"/  c #646464",
"(  c #676867",
")  c #6A6D60",
"_  c #676768",
"`  c #6B6B6B",
"'  c #6F706C",
"]  c #75776D",
"[  c #747473",
"{  c #787877",
"}  c #7B7B7B",
"|  c #6F803A",
" . c #72843B",
".. c #768A3D",
"X. c #7A8E3F",
"o. c #768742",
"O. c #7B8D44",
"+. c #79874F",
"@. c #7E9241",
"#. c #7D885A",
"$. c #7E8567",
"%. c #819542",
"&. c #859B45",
"*. c #899F46",
"=. c #84974B",
"-. c #899C4C",
";. c #829252",
":. c #8B9D53",
">. c #8DA449",
",. c #90A74A",
"<. c #94AC4D",
"1. c #97B04E",
"2. c #99B14F",
"3. c #8FA05A",
"4. c #97AE51",
"5. c #9CB551",
"6. c #9EB852",
"7. c #A2BC54",
"8. c #838E61",
"9. c #8C976C",
"0. c #888D7B",
"q. c #8B9373",
"w. c #94A365",
"e. c #9AAC62",
"r. c #96A569",
"t. c #A6C156",
"y. c #ABC658",
"u. c #AECA5A",
"i. c #B2CE5C",
"p. c #B4D25D",
"a. c #BCDA61",
"s. c #C0DF64",
"d. c #838383",
"f. c #868882",
"g. c #8C8C8C",
"h. c #929688",
"j. c #949494",
"k. c #9D9D9D",
"l. c #A3A3A3",
"z. c #ABABAB",
"x. c #B3B3B3",
"c. c #BCBCBC",
"v. c #C4C4C4",
"b. c #CBCBCB",
"n. c #D0D0CF",
"m. c #D4D4D4",
"M. c #DBDBDB",
"N. c #E3E3E3",
"B. c #ECECEC",
"V. c #F4F4F4",
"C. c #FFFFFF",
/* pixels */
"C.C.C.C.C.C.C.C.C.C.C.C.C.C.C.C.C.C.C.C.C.C.C.C.C.C.C.C.C.C.C.C.C.C.C.C.C.C.C.C.C.C.C.C.C.C.C.C.C.C.C.C.C.C.C.C.C.C.C.C.C.C.C.C.",
"C.C.C.C.C.C.C.C.C.C.C.C.C.C.C.C.C.C.C.C.C.C.C.C.C.C.C.C.C.C.C.C.C.C.C.C.C.C.C.C.C.C.C.C.C.C.C.C.C.C.C.C.C.C.C.C.C.C.C.C.C.C.C.C.",
"C.C.C.C.C.C.C.C.C.C.C.C.C.C.C.C.C.C.C.C.C.C.C.C.C.C.C.C.C.C.C.C.C.C.C.C.C.C.C.C.C.C.C.C.C.C.C.C.C.C.C.C.C.C.C.C.C.C.C.C.C.C.C.C.",
"C.C.C.C.C.C.C.C.C.C.C.C.C.C.C.C.C.C.C.C.C.C.C.C.C.C.C.C.C.C.C.C.C.C.C.C.C.C.C.C.C.C.C.C.C.C.C.C.C.C.C.C.C.C.C.C.C.C.C.C.C.C.C.C.",
"C.C.C.C.C.C.C.C.C.C.C.C.C.C.C.C.C.C.C.C.C.C.C.C.C.C.C.C.C.C.C.C.C.C.C.C.C.C.C.C.C.C.C.C.C.C.C.C.C.C.C.C.C.C.C.C.C.C.C.C.C.C.C.C.",
"C.C.C.C.C.C.C.C.C.C.C.C.C.C.C.C.C.C.C.C.C.C.C.C.C.C.C.C.C.C.C.C.C.C.C.C.C.C.C.C.C.C.C.C.C.C.C.C.C.C.C.C.C.C.C.C.C.C.C.C.C.C.C.C.",
"C.C.C.C.C.C.C.C.C.C.C.C.C.C.C.C.C.C.C.C.V.C.C.C.C.C.C.C.C.C.C.C.C.C.C.C.C.V.C.C.C.C.C.C.C.C.C.C.C.C.C.C.C.C.C.C.C.C.C.C.C.C.C.C.",
"C.C.C.C.C.C.C.C.C.C.C.C.C.C.C.C.C.C.C.C.M.B.C.C.C.C.C.C.C.C.C.C.C.C.C.C.V.m.B.C.C.C.C.C.C.C.C.C.C.C.C.C.C.C.C.C.C.C.C.C.C.C.C.C.",
"C.C.C.C.C.C.C.V.V.C.C.C.C.C.C.C.C.C.C.C.C.C.C.C.C.C.C.C.C.C.C.C.C.C.C.C.V.B.V.C.C.C.C.C.C.C.C.C.C.C.C.C.C.C.C.C.C.C.C.C.C.C.C.C.",
"C.C.C.C.C.C.V.m.b.B.C.C.C.C.C.C.C.C.C.C.C.C.C.C.C.C.C.C.C.C.C.C.C.C.C.C.C.C.C.C.C.C.C.C.C.C.C.C.C.C.C.C.C.C.C.C.C.C.C.C.C.C.C.C.",
"C.C.C.C.C.C.V.b.m.B.C.C.C.C.C.C.C.C.C.C.C.C.C.C.C.C.C.C.C.C.C.C.C.C.C.C.C.C.C.C.C.C.C.C.C.C.C.C.C.C.C.C.C.C.C.C.C.C.C.C.C.C.C.C.",
"C.C.C.C.C.C.C.V.V.C.C.C.C.C.C.C.C.C.C.C.C.C.C.C.C.C.C.C.C.C.C.C.C.C.C.C.C.C.C.C.C.C.C.C.C.C.C.C.C.C.C.C.C.C.C.C.C.C.C.C.C.C.C.C.",
"C.C.C.C.C.C.C.C.C.C.C.C.C.C.C.C.C.C.C.C.C.C.C.C.C.C.C.C.C.C.C.C.C.C.C.C.C.C.C.C.C.C.C.C.C.C.C.C.C.C.C.C.C.C.C.C.C.C.C.C.C.C.C.C.",
"C.C.C.C.C.C.C.C.C.C.C.C.C.C.C.C.C.C.C.C.C.C.C.C.C.C.C.C.C.C.C.C.C.C.C.C.C.C.C.C.C.C.C.C.C.C.C.C.C.C.C.C.C.C.C.C.C.C.C.C.C.C.C.C.",
"C.C.C.C.C.C.C.C.C.C.C.C.C.C.C.C.C.C.C.C.C.V.B.N.N.N.B.C.C.C.C.C.C.C.C.C.C.C.V.C.C.C.C.C.C.C.C.C.C.C.C.C.C.C.C.C.C.C.C.C.C.C.C.C.",
"C.C.C.C.C.C.C.C.C.C.C.C.C.C.C.C.C.C.C.B.m.b.b.b.b.v.v.b.M.B.B.B.B.B.B.V.V.C.C.C.C.C.V.C.C.C.C.C.C.V.V.C.C.C.C.C.C.C.C.C.C.C.C.C.",
"C.C.C.C.C.C.C.C.C.C.C.C.C.C.C.C.C.C.N.b.b.v.v.b.v.v.c.l.j.l.k.k.l.x.b.N.V.V.C.V.C.V.V.C.C.C.C.C.B.m.b.B.C.C.C.C.C.C.C.C.C.C.C.C.",
"C.C.C.C.C.C.C.C.C.C.C.C.C.C.C.C.C.V.b.b.c.l.k.z.z.k.d.' R R W ~ ) ] 0.k.c.m.N.V.V.V.V.B.B.N.B.V.M.v.b.V.C.C.C.C.C.C.C.C.C.C.C.C.",
"C.C.C.C.C.C.C.C.C.C.C.C.C.C.C.C.C.C.M.v.z._ T / E T d q 9 p k B B b c v / j.c.M.N.M.M.m.b.c.v.M.N.b.M.C.C.V.C.C.C.C.C.C.C.C.C.C.",
"C.C.C.C.C.C.C.C.C.C.C.C.C.C.C.C.C.C.C.m.j.L 7 K t 5 < 4 h N H O.%. .C z n Y [ j.j.j.g.d.[ d.k.b.B.B.V.V.C.V.C.C.C.C.C.C.C.C.C.C.",
"C.C.C.C.C.C.C.C.V.C.C.C.C.C.C.C.C.C.V.b.f.J 7 K e & 8 x  .>.2.u.a.a.7.>.F s q t J J y e 5 I g.b.N.V.V.V.V.C.V.C.C.C.C.C.C.C.C.C.",
"C.C.C.C.C.C.C.C.M.B.C.C.C.C.C.C.C.V.N.k.T r L ` E y 0 h  .>.7.p.a.a.a.u.<.H f > 7 r 7 e y [ z.m.N.N.B.V.V.V.C.V.C.C.C.C.C.C.C.C.",
"C.C.C.C.C.C.C.C.N.V.C.C.C.C.C.C.C.V.m.d.y 7 P } ` L 0 f F &.2.u.a.a.a.s.a.7.F 4 7 e r P [ l.b.m.M.M.N.B.B.V.V.C.C.C.C.C.C.C.C.C.",
"C.C.C.C.C.C.C.C.C.C.C.C.C.C.C.C.C.C.B.k.P & 5 J y 7 f m G X.<.y.a.a.a.a.a.p.>.C 2 & J _ j.x.v.b.m.M.N.N.B.B.V.C.C.V.C.C.C.C.C.C.",
"C.C.C.C.C.C.C.C.C.C.C.C.C.C.C.C.C.C.B.k.T > = , , > h D ..&.6.p.a.a.a.a.a.a.t.%.4 ; K { l.z.x.v.v.b.m.N.B.B.V.V.V.C.C.C.C.C.C.C.",
"C.C.C.C.C.C.C.C.C.C.C.C.C.C.C.C.C.C.N.g.v 0 u u 4 4 x H X.,.t.p.a.a.a.a.a.a.u.>.h 8 T { j.l.z.x.c.b.m.M.N.B.V.V.C.C.C.C.C.C.C.C.",
"C.C.C.C.C.C.C.C.C.C.C.C.C.C.C.C.C.C.M.{ q a z m z z G X.| G  .&.6.i.a.a.i.7.&.F 3 > L _ g.j.k.z.c.v.m.M.N.B.V.V.V.V.C.C.C.C.C.C.",
"C.C.C.C.C.C.C.C.C.C.C.C.C.C.C.C.C.V.m.` < f N G H  .>.&.m 4 1 h H >.7.y.1. .l < + $ y E } g.j.l.x.c.b.M.N.B.V.V.C.C.C.C.C.C.C.C.",
"C.C.C.C.C.C.C.C.C.C.C.C.C.C.C.C.C.B.b.( , a M H X.&.6.,.j * O @ 1 z D G m 4 ; $ . o r T { f.j.l.x.c.b.M.N.B.V.C.C.C.C.C.C.C.C.C.",
"C.C.C.C.C.C.C.C.C.C.C.C.C.C.C.C.C.V.n._ , a m G X.>.y.2.z @     . = 3 u 1 . o O o o 7 T [ } g.k.z.v.m.M.N.B.C.V.C.C.C.C.C.C.C.C.",
"C.C.C.C.C.C.C.C.C.C.C.C.C.C.C.C.C.V.M.[ q h N D ..&.t.6.N : .   o % 2 u : . o # o $ r T ` } g.l.z.v.m.M.B.V.V.V.V.C.C.C.C.C.C.C.",
"C.C.C.C.C.C.C.C.C.C.C.C.C.C.C.C.C.V.N.d.d g m D  .%.2.2. .i O . % 2 g N z 2 2 2 + & y T [ } g.l.x.v.m.N.B.V.V.C.C.C.C.C.C.C.C.C.",
"C.C.C.C.C.C.C.C.C.C.C.C.B.B.C.C.C.C.B.k.T s h A  .%.,.<.>.D 2 = 2 x o.-.=.H F m 2 - K E [ d.j.l.x.v.m.N.B.V.V.V.C.C.C.C.C.C.C.C.",
"C.C.C.C.C.C.C.C.C.C.V.m.b.b.m.V.C.V.V.c.{ w 4 C ..%.*.>.&.+.~ U S o.:.w.e.4.O.x 8 7 P / ' d.j.l.c.b.M.N.V.V.C.C.C.C.C.C.C.C.C.C.",
"C.C.C.C.C.C.C.C.V.M.m.b.b.b.b.m.V.V.V.M.k.L 4 N  .%.&.%.O.8.h.q.;.:.3.9.r.5. .f 6 r E _ { d.k.l.c.b.M.B.V.V.C.V.C.C.C.C.C.C.C.C.",
"C.C.C.C.C.C.C.C.N.b.b.b.b.b.b.b.M.C.V.B.v.{ v 0 z  .@.%.O.#.0.$.! O.=.;.+.G f , r P E ` { f.k.z.c.n.M.B.V.V.V.C.C.C.C.C.C.C.C.C.",
"C.C.C.C.C.C.C.C.m.b.b.b.b.b.b.b.b.B.C.V.N.l.` w p m F  .H ! ^ Q S G H D x p , 6 J E / ` } g.k.x.v.m.N.B.V.V.C.C.C.C.C.C.C.C.C.C.",
"C.C.C.C.C.C.C.C.m.b.b.b.b.b.b.b.b.M.V.V.B.m.z.` d 2 p j N C Z Z C V x p < , e J T E _ [ d.j.k.x.b.m.m.B.V.V.C.V.C.C.C.C.C.C.C.C.",
"C.C.C.C.C.C.C.C.N.b.b.b.b.b.b.b.b.m.B.n.c.c.z.d.E y 8 2 u i f h h u 3 : - 5 e y P T / [ d.k.z.c.c.x.c.c.n.V.C.C.C.C.C.C.C.C.C.C.",
"C.C.C.C.C.C.C.C.C.N.b.b.b.m.b.b.b.b.n.g./ _ [ [ } ' y - @ : 3 4 3 : $ 5 6 7 6 5 7 J P ` d.k.x.x.z.x.c.b.N.V.C.C.C.C.C.C.C.C.C.C.",
"C.C.C.C.C.C.C.C.C.C.M.b.b.b.b.b.v.c.l.R 5 6 e y T ` I 7 < f D H G u ; 6 7 5 $ # $ & 7 I d.k.x.c.v.m.N.B.V.V.C.C.C.C.C.C.C.C.C.C.",
"C.C.C.C.C.C.C.C.C.C.V.m.b.b.b.b.b.x.g.t         e E T y p D 5.i.2.m 8 t 7 $ X       o y } k.x.v.m.N.N.V.V.C.V.C.C.C.C.C.C.C.C.C.",
"C.C.C.C.C.C.C.C.C.C.C.B.b.b.b.b.v.c.l.L         7 E E v 0 D 7.i.4.l 6 v y 5 o       X r } l.x.v.m.M.N.V.V.C.C.C.C.C.C.C.C.C.C.C.",
"C.C.C.C.C.C.C.C.C.C.C.C.m.b.b.b.b.m.v.` &     X y _ ` L 2 z >.<. .p 6 L I r $ X   X $ K f.l.x.v.m.M.N.B.V.C.V.C.C.C.C.C.C.C.C.C.",
"C.C.C.C.C.C.C.C.C.C.C.C.N.b.b.b.b.B.N.j.P & o 5 E g.[ I , 2 m m f 6 e T E P e #   $ e E j.l.x.v.b.M.N.B.V.C.C.C.C.C.C.C.C.C.C.C.",
"C.C.C.C.C.C.C.C.C.C.C.C.C.m.b.b.M.V.V.v.j.E I / g.k.` y % + 2 < ; & 7 I E E P r e r E } k.l.x.c.b.m.N.B.V.V.V.C.C.C.C.C.C.C.C.C.",
"C.C.C.C.C.C.C.C.C.C.C.C.C.V.m.M.V.C.C.B.m.x.l.z.x.l.E 5 o o & & % $ % r T ` ` _ _ ` f.j.k.z.x.c.b.m.M.B.V.V.V.C.C.C.C.C.C.C.C.C.",
"C.C.C.C.C.C.C.C.C.C.C.C.C.C.C.C.C.V.V.V.B.M.n.b.c.z._ r & 5 e t r & & e P ` { } d.g.j.k.l.z.x.c.b.m.M.B.B.V.C.C.C.C.C.C.C.C.C.C.",
"C.C.C.C.C.C.C.C.C.C.C.C.C.C.C.C.C.C.V.V.B.B.M.m.v.z.d.E K P T T I y e y T [ d.g.j.j.l.l.z.x.x.v.b.m.N.B.B.V.C.C.C.C.C.C.C.C.C.C.",
"C.C.C.C.C.C.C.C.C.C.C.C.C.C.C.C.C.V.V.V.B.B.N.m.b.v.z.k.j.g.j.g.d.[ ` [ [ g.g.j.k.l.z.z.x.x.v.v.m.M.N.B.V.V.C.C.C.C.C.C.C.C.C.C.",
"C.C.C.C.C.C.C.C.C.C.C.C.C.C.C.C.C.C.C.V.V.B.N.M.m.b.v.c.c.x.x.l.k.k.k.j.j.j.k.l.l.z.x.x.c.v.b.b.b.b.M.B.V.C.V.C.C.C.C.C.C.C.C.C.",
"C.C.C.C.C.C.C.C.C.C.C.C.C.C.C.C.C.C.C.V.V.V.B.N.M.m.n.b.v.c.c.x.z.z.l.l.l.l.z.z.x.c.c.v.b.v.x.x.x.c.c.m.V.V.C.C.C.C.C.C.C.C.C.C.",
"C.C.C.C.C.C.C.C.C.C.C.C.C.C.C.C.C.C.C.C.V.V.B.B.N.N.M.M.m.b.v.v.c.x.x.x.x.x.x.c.v.v.b.b.b.x.z.x.x.c.v.b.B.C.C.C.C.C.C.C.C.C.C.C.",
"C.C.C.C.C.C.C.C.C.C.C.C.C.C.C.V.N.B.V.C.C.C.V.B.B.B.N.M.M.m.m.b.b.v.v.c.c.v.v.v.b.m.m.M.c.x.c.c.c.v.v.v.N.C.C.C.C.C.C.C.C.C.C.C.",
"C.C.C.C.C.C.C.C.C.C.C.C.C.C.V.m.b.b.M.C.C.V.V.V.V.V.B.B.B.N.M.M.M.m.n.b.b.m.m.m.M.M.N.N.v.c.c.v.v.v.v.v.N.C.C.C.C.C.C.C.C.C.C.C.",
"C.C.C.C.C.C.C.C.C.C.C.C.C.C.M.b.b.b.b.B.C.C.C.V.V.V.V.B.B.B.B.N.N.M.M.M.M.M.M.M.N.N.B.N.b.c.v.v.v.b.b.b.B.C.C.C.C.C.C.C.C.C.C.C.",
"C.C.C.C.C.C.C.C.C.C.C.C.C.C.B.b.b.b.b.N.C.C.C.C.V.C.C.V.V.V.B.B.B.N.B.N.N.N.B.B.B.B.B.V.m.v.v.b.v.b.b.b.V.C.C.C.C.C.C.C.C.C.C.C.",
"C.C.C.C.C.C.C.C.C.C.C.C.C.C.C.N.M.m.N.V.C.C.C.C.C.V.C.V.C.V.V.V.V.B.B.B.V.B.V.B.V.V.V.C.B.b.v.b.b.b.b.M.C.C.C.C.C.C.C.C.C.C.C.C.",
"C.C.C.C.C.C.C.C.C.C.C.C.C.C.C.C.C.C.C.C.C.C.C.C.C.C.V.C.C.V.V.C.V.V.V.V.V.V.V.V.V.C.V.V.C.B.b.b.b.b.m.V.C.C.C.C.C.C.C.C.C.C.C.C.",
"C.C.C.C.C.C.C.C.C.C.C.C.C.C.C.C.C.C.C.C.C.C.C.C.C.C.C.C.C.C.C.V.C.C.V.C.V.C.V.C.V.C.C.C.C.C.B.M.m.M.V.C.C.C.C.C.C.C.C.C.C.C.C.C.",
"C.C.C.C.C.C.C.C.C.C.C.C.C.C.C.C.C.C.C.C.C.C.C.C.C.C.C.C.C.C.C.C.C.V.C.C.C.C.C.V.C.C.C.C.C.C.C.C.V.C.C.C.C.C.C.C.C.C.C.C.C.C.C.C.",
"C.C.C.C.C.C.C.C.C.C.C.C.C.C.C.C.C.C.C.C.C.C.C.C.C.C.C.C.C.C.C.C.C.C.C.C.C.C.C.C.C.C.C.C.C.C.C.C.C.C.C.C.C.C.C.C.C.C.C.C.C.C.C.C.",
"C.C.C.C.C.C.C.C.C.C.C.C.C.C.C.C.C.C.C.C.C.C.C.C.C.C.C.C.C.C.C.C.C.C.C.C.C.C.C.C.C.C.C.C.C.C.C.C.C.C.C.C.C.C.C.C.C.C.C.C.C.C.C.C.",
"C.C.C.C.C.C.C.C.C.C.C.C.C.C.C.C.C.C.C.C.C.C.C.C.C.C.C.C.C.C.C.C.C.C.C.C.C.C.C.C.C.C.C.C.C.C.C.C.C.C.C.C.C.C.C.C.C.C.C.C.C.C.C.C."
};
