/* XPM */
static char *_9bb0be23e744b5da2db5787b1bf9440LmWhXxiX1WtS3VsR[] = {
/* columns rows colors chars-per-pixel */
"64 64 113 2 ",
"   c None",
".  c #010100",
"X  c #080704",
"o  c #0B0A05",
"O  c #0B0B0B",
"+  c #110F07",
"@  c #120F08",
"#  c #141209",
"$  c #19150B",
"%  c #1D190D",
"&  c #131313",
"*  c gray10",
"=  c #211D0F",
"-  c #2D1212",
";  c #221E11",
":  c #2B1E1B",
">  c #331E1C",
",  c #262111",
"<  c #2B2613",
"1  c #2E2915",
"2  c #332D17",
"3  c #362F18",
"4  c #3A331A",
"5  c #1F1F20",
"6  c #222323",
"7  c #322724",
"8  c #3A3522",
"9  c #37342A",
"0  c #3F3F3F",
"q  c #471415",
"w  c #4D1718",
"e  c #443B1E",
"r  c #483F20",
"t  c #4A3635",
"y  c #533939",
"u  c #4D4222",
"i  c #504523",
"p  c #544926",
"a  c #594D27",
"s  c #5D5229",
"d  c #62552B",
"f  c #675A2D",
"g  c #695C2E",
"h  c #6C5E30",
"j  c #6F6131",
"k  c #746533",
"l  c #766835",
"z  c #7B6B37",
"x  c #7F6E38",
"c  c #5D5C5D",
"v  c #7B7A7B",
"b  c #850505",
"n  c #8C1313",
"m  c #911818",
"M  c #8C292A",
"N  c #942222",
"B  c #922E2E",
"V  c #9B2E2E",
"C  c #83723A",
"Z  c #89773D",
"A  c #8D7B3E",
"S  c #8F7E40",
"D  c #907E40",
"F  c #9F6969",
"G  c #966F71",
"H  c #9B7C7C",
"J  c #A56465",
"K  c #948141",
"L  c #9A8644",
"P  c #9E8A46",
"I  c #A18C47",
"U  c #A38E49",
"Y  c #A7914A",
"T  c #AC954C",
"R  c #AF984E",
"E  c #B39B4F",
"W  c #B59D50",
"Q  c #B89F51",
"!  c #BEA554",
"~  c #BFA655",
"^  c #BDA554",
"/  c #BBA253",
"(  c #C0A755",
")  c #C3A956",
"_  c #C3A957",
"`  c #C3AA57",
"'  c #C4AA57",
"]  c #C5AB57",
"[  c #C3AA57",
"{  c #C5AB58",
"}  c #C6AC58",
"|  c #C8AD58",
" . c #C9AE59",
".. c #C9AF59",
"X. c #CAAF59",
"o. c #CAAF5A",
"O. c #C8AD59",
"+. c #CAB05A",
"@. c #CBB05A",
"#. c #CCB05A",
"$. c #CCB15A",
"%. c #CCB15B",
"&. c #CDB15B",
"*. c #CDB25B",
"=. c #CEB25B",
"-. c #CFB35C",
";. c #CFB45C",
":. c #CDB25B",
">. c #D1B65D",
",. c gray51",
"<. c #AB8C8C",
"1. c #C9ADAD",
"2. c #CBCBCB",
/* pixels */
"                                                                                                                                ",
"                                                                                                                                ",
"                                                                                                                                ",
"                                                                                                                                ",
"                                                                                                                                ",
"                                                                                                                                ",
"                                                                                                                                ",
"                                                                                                                                ",
"                                                                                                                                ",
"                                                                                                                                ",
"                                                                                                                                ",
"                                                                                                                                ",
"                                                                                                                                ",
"                                                                                                                                ",
"                                                                                                                                ",
"                                                                                                                                ",
"                                                                                                                                ",
"                                                                                                                                ",
"                                                                                . .                                             ",
"                                                                              . . .                                             ",
"                                                                            . . .                                               ",
"                                                                .   .     . . . .                                               ",
"                                                          . . . . . . . . O 0 X .                                               ",
"                                                    . . . . 2 e r a @ . O v v .                                                 ",
"                                                  . . . p D E ..{ ! < X v 2.0 .                                                 ",
"                                                . . < C ^ :.*.@.@.E p X c ,.& . .                                               ",
"                                              . . # C ;.:.@.@.@.@.Y K 3 . & X % . .                                             ",
"                                              . X x ..@.@.@.@.@.*._ Z K s ; 2 A < .                                             ",
"                                              . , C E @.@.@.@.@.X.%.( D S D Y %.S . .                                           ",
"                                            . X f L ` @.@.@.@.@.>.%.X.X./ W { %.T ; .                                           ",
"                                            . o k P E ^ @.@.j 4 z Q *.X.X.>.{ C r 4 .                                           ",
"                                            . 1 Z A L ^ :.~ , . . : k Q X.T r O O X . .                                         ",
"                                          . . % x S S T @./ , . . . X < d % . O * ; o .                                         ",
"                                            . < A S S T @._ 2 . . . & & 3 . . & & o . .                                         ",
"                                            . # k S K P E :.j . . O 6 ; S ; . O < u . .                                         ",
"                                            . X g S A A T / E e X O X s / U d d D < .                                           ",
"                                              . 3 C S S L K ` ~ z $ & 9 8 z { >.L X .                                           ",
"                                              . X f S S A K I P p t <.J G 7 D R 2 . .                                           ",
"                                              . . = f S A A k s > M N b m q d f . .                                             ",
"                                                . . = h Z A l e w V V n B - @ o . . . .                                         ",
"                                                . @ . o e k z s : H 1.J y X . . # $ $ .                                         ",
"                                              . o k = . X o < e X O 6 * . X 3 s D D f .                                         ",
"                                              . 2 C ; . . . . . . . . . . 2 / *.%...D #                                         ",
"                                            . + C Z % .       . .   . . @ P ..@.@.%.! u .                                       ",
"                                . .       . X k U D , .                 % L _ *.@.@.} k X .                                     ",
"                                . . . . X % k T z L e .               Z r o 4 Z ..%.I $ .                                       ",
"                                  . ; C Z L L Z g L g .               k     . o d ( p .                                         ",
"                                  . ; ! ..! W T A z L o .                       X p $                                           ",
"                                  . % / *._ T A d e T 3 .                         . .                                           ",
"                                  . 2 { ' T I C g L C = a Z                       3 4                                           ",
"                                  . h *.^ ( L C E p X . p L d                     C C                                           ",
"                                . . u Y *.T z E u . .                                                                           ",
"                                  . . $ z z U k . .                                                                             ",
"                                      . X a U $ .                                                                               ",
"                                        . ; u .                                                                                 ",
"                                          . . .                                                                                 ",
"                                          . o +                                                                                 ",
"                                            C x                                                                                 ",
"                                            j A                                                                                 ",
"                                                =                                                                               ",
"                                                                                                                                ",
"                                                                                                                                ",
"                                                                                                                                ",
"                                                                                                                                "
};
