/* XPM */
static char *result[] = {
/* columns rows colors chars-per-pixel */
"64 64 195 2 ",
"   c #030303",
".  c #080704",
"X  c #0B0A07",
"o  c #0D0D0B",
"O  c #130F0C",
"+  c #14120C",
"@  c #19160D",
"#  c #1E1A0D",
"$  c #141412",
"%  c #191711",
"&  c #1C1B14",
"*  c #1C1C1B",
"=  c #211C0E",
"-  c #221E12",
";  c #291918",
":  c #311C14",
">  c #252114",
",  c #2A2515",
"<  c #2E2816",
"1  c #24231C",
"2  c #2A261A",
"3  c #2E291B",
"4  c #302A16",
"5  c #332D1B",
"6  c #35301C",
"7  c #3B331B",
"8  c #232323",
"9  c #282725",
"0  c #2D2B24",
"q  c #272728",
"w  c #2C2C2B",
"e  c #312F2B",
"r  c #392B28",
"t  c #363224",
"y  c #3F3823",
"u  c #34322B",
"i  c #3A362B",
"p  c #3D392C",
"a  c #333333",
"s  c #393632",
"d  c #3C3B35",
"f  c #3D3C3C",
"g  c #4D201E",
"h  c #40371D",
"j  c #433A1E",
"k  c #473625",
"l  c #443C23",
"z  c #483F22",
"x  c #563220",
"c  c #433B32",
"v  c #403F3B",
"b  c #563634",
"n  c #682824",
"m  c #752D2E",
"M  c #6A362C",
"N  c #77322F",
"B  c #6D3E39",
"V  c #4C4223",
"C  c #4E462C",
"Z  c #524725",
"A  c #554A26",
"S  c #584D27",
"D  c #554B2B",
"F  c #5A4E2A",
"G  c #5D512C",
"H  c #464234",
"J  c #4F4935",
"K  c #42413F",
"L  c #4A4639",
"P  c #504933",
"I  c #5D5333",
"U  c #5B543C",
"Y  c #63492B",
"T  c #63562D",
"R  c #66592E",
"E  c #6A5C2F",
"W  c #634C39",
"Q  c #704E30",
"!  c #6B5D31",
"~  c #705F32",
"^  c #6F6031",
"/  c #6E6139",
"(  c #746434",
")  c #776835",
"_  c #7B6B36",
"`  c #77693B",
"'  c #7D6D39",
"]  c #7F7138",
"[  c #444444",
"{  c #494742",
"}  c #4D4B43",
"|  c #4C4B4B",
" . c #514E46",
".. c #504F4D",
"X. c #555244",
"o. c #595547",
"O. c #54524C",
"+. c #5C584C",
"@. c #555554",
"#. c #5C5A54",
"$. c #5C5C5B",
"%. c #6A4543",
"&. c #784A49",
"*. c #675C45",
"=. c #625E52",
"-. c #7D5555",
";. c #69624A",
":. c #776842",
">. c #6A6553",
",. c #64635E",
"<. c #746F5F",
"1. c #7D745A",
"2. c #646463",
"3. c #6D6C66",
"4. c #6C6C6C",
"5. c #747166",
"6. c #72716D",
"7. c #737373",
"8. c #7A7976",
"9. c #7C7C7C",
"0. c #942727",
"q. c #8A3031",
"w. c #933F3F",
"e. c #806E3A",
"r. c #85743B",
"t. c #88763C",
"y. c #8C7A3E",
"u. c #994D4E",
"i. c #845455",
"p. c #887541",
"a. c #917E40",
"s. c #877F68",
"d. c #807F7E",
"f. c #948142",
"g. c #9A8644",
"h. c #9E8A46",
"j. c #9F8B48",
"k. c #A18C47",
"l. c #A38D48",
"z. c #A69149",
"x. c #AB954C",
"c. c #AE994D",
"v. c #B19A4E",
"b. c #B59D50",
"n. c #B89F51",
"m. c #BCA353",
"M. c #898168",
"N. c #87857C",
"B. c #918C7C",
"V. c #999070",
"C. c #C0A755",
"Z. c #C3A957",
"A. c #C7AC58",
"S. c #C9AE59",
"D. c #CCB15A",
"F. c #D1B55D",
"G. c #D4B85E",
"H. c #848484",
"J. c #8B8984",
"K. c #8C8C8C",
"L. c #989486",
"P. c #939393",
"I. c #9C9A94",
"U. c #9C9C9C",
"Y. c #A09F9D",
"T. c #A5A08F",
"R. c #ABA38A",
"E. c #A8A59D",
"W. c #A9A69C",
"Q. c #A4A4A4",
"!. c #A8A7A6",
"~. c #ABAAA5",
"^. c #ACACAC",
"/. c #B9B5A9",
"(. c #B4B4B4",
"). c #BCBCBC",
"_. c #C3BDAA",
"`. c #C7C3B6",
"'. c #C1C0BF",
"]. c #C9C7BF",
"[. c #C4C4C4",
"{. c #CDCBC3",
"}. c #CBCBCB",
"|. c #D7D5CD",
" X c #D3D3D3",
".X c #DCDBD7",
"XX c #DCDCDC",
"oX c #E0DFDD",
"OX c #E3E2DF",
"+X c #E4E4E4",
"@X c #E9E8E6",
"#X c #ECECEC",
"$X c #F1F0EF",
"%X c #F4F4F4",
"&X c #FEFEFE",
/* pixels */
"&X&X&X&X&X&X&X&X&X&X&X&X&X&X&X&X&X&X&X&X&X&X&X&X&X&X&X&X&X&X&X&X&X&X&X&X&X&X&X&X&X&X&X&X&X&X&X&X&X&X&X&X&X&X&X&X&X&X&X&X&X&X&X&X",
"&X&X&X&X&X&X&X&X&X&X&X&X&X&X&X&X&X&X&X&X&X&X&X&X&X&X&X&X&X&X&X&X&X&X&X&X&X&X&X&X&X&X&X&X&X&X&X&X&X&X&X&X&X&X&X&X&X&X&X&X&X&X&X&X",
"&X&X&X&X&X&X&X&X&X&X&X&X&X&X&X&X&X&X&X&X&X&X&X&X&X&X&X&X&X&X&X&X&X&X&X&X&X&X&X&X&X&X&X&X&X&X&X&X&X&X&X&X&X&X&X&X&X&X&X&X&X&X&X&X",
"&X&X&X&X&X&X&X&X&X&X&X&X&X&X&X&X&X&X&X&X&X&X&X&X&X&X&X&X&X&X&X&X&X&X&X&X&X&X&X&X&X&X&X&X&X&X&X&X&X&X&X&X&X&X&X&X&X&X&X&X&X&X&X&X",
"&X&X&X&X&X&X&X&X&X&X&X&X&X&X&X&X&X&X&X&X&X&X&X&X&X&X&X&X&X&X&X&X&X&X&X&X&X&X&X&X&X&X&X&X&X&X&X&X&X&X&X&X&X&X&X&X&X&X&X&X&X&X&X&X",
"&X&X&X&X&X&X&X&X&X&X&X&X&X&X&X&X&X&X&X&X&X&X&X&X&X&X&X&X&X&X&X&X&X&X&X&X&X&X&X&X&X&X&X&X&X&X&X&X&X&X&X&X&X&X&X&X&X&X&X&X&X&X&X&X",
"&X&X&X&X&X&X&X&X&X&X&X&X&X&X&X&X&X&X&X&X%X%X&X&X&X&X&X&X&X&X&X&X&X&X&X&X&X%X&X&X&X&X&X&X&X&X&X&X&X&X&X&X&X&X&X&X&X&X&X&X&X&X&X&X",
"&X&X&X&X&X&X&X&X&X&X&X&X&X&X&X&X&X&X&X&XXX#X&X&X&X&X&X&X&X&X&X&X&X&X&X&X%X X#X&X&X&X&X&X&X&X&X&X&X&X&X&X&X&X&X&X&X&X&X&X&X&X&X&X",
"&X&X&X&X&X&X&X%X%X&X&X&X&X&X&X&X&X&X&X&X%X&X&X&X&X&X&X&X&X&X&X&X&X&X&X&X%X#X&X&X&X&X&X&X&X&X&X&X&X&X&X&X&X&X&X&X&X&X&X&X&X&X&X&X",
"&X&X&X&X&X&X%X X X#X%X%X%X%X%X&X&X&X&X&X&X&X&X&X&X&X&X&X&X&X&X&X&X&X&X&X&X&X&X&X&X&X&X&X&X&X&X&X&X&X&X&X&X&X&X&X&X&X&X&X&X&X&X&X",
"&X&X&X&X&X&X%X X}.#X#XoXXX+X%X&X&X%X&X&X&X&X&X&X&X&X&X&X&X&X&X&X&X&X&X&X&X&X&X&X&X&X&X&X&X&X&X&X&X&X&X&X&X&X&X&X&X&X&X&X&X&X&X&X",
"&X&X&X&X&X&X&X#X%X%X|.`.{.OX%X%X&X%X&X&X%X&X&X&X&X&X&X&X&X&X&X&X&X&X&X&X&X&X&X&X&X&X&X&X&X&X&X&X&X&X&X&X&X&X&X&X&X&X&X&X&X&X&X&X",
"&X&X&X&X&X&X&X&X%XOX_.R.`..X$X%X%X&X%X%X%X&X%X&X&X&X&X&X&X&X&X&X&X&X&X&X&X&X&X&X&X&X&X&X&X&X&X&X&X&X&X&X&X&X&X&X&X&X&X&X&X&X&X&X",
"&X&X&X&X&X&X&X&X@X`.R.V._.OX%X%X%X%X%X&X%X&X&X&X&X&X&X&X&X&X&X&X&X&X&X&X&X&X&X&X&X&X&X&X&X&X&X&X&X&X&X&X&X&X&X&X&X&X&X&X&X&X&X&X",
"&X&X&X&X&X&X&X&X|.W.s.s.W.XX#X$X$X$X%X%X%X$X+X+XXX+X#X%X&X&X&X&X&X&X&X&X&X&X&X&X&X&X&X&X&X&X&X&X&X&X&X&X&X&X&X&X&X&X&X&X&X&X&X&X",
"&X&X&X&X&X&X&X%X}.J.o.H N.).XX#X#X#X#XoX}.}.[.[.}.}.}. X$X&X&X&X&X&X&X&X&X&X&X&X&X&X&X&X&X&X&X&X&X%X%X&X&X&X&X&X&X&X&X&X&X&X&X&X",
"&X&X&X&X&X&X&X%X(.6.a * ..K.'.+X+X+X}.'.).'.[.[.[.[.}.}. X%X&X&X&X&X&X&X&X&X&X&X&X&X&X&X&X&X&X&X#X X}.#X&X&X&X&X&X&X&X&X&X&X&X&X",
"&X&X&X&X&X&X&X%X^.$.u < i #.K.(. X X(.(.).).(.(.).[.}.[.}.#X&X&X&X&X&X&X&X&X&X&X&X&X&X%X%X&X%X&XXX}.}.%X&X&X&X&X&X&X&X&X&X&X&X&X",
"&X&X&X&X&X&X%X+XP.{ c V l p #.H.!.[.(.^.^.^.!.!.(.'.[.[.}.+X&X&X&X&X&X&X&X&X&X&X&X%X%X+X+X$X%X&X%X XXX&X&X&X&X&X&X&X&X&X&X&X&X&X",
"&X&X&X&X&X&X@X).6.i V E R F P ..,.9.P.K.L.B.B.I.^.).[.[.[.@X%X&X%X&X&X&X&X&X&X&X%X%X X(.).oX%X&X%X%X%X%X&X%X&X&X&X&X&X&X&X&X&X&X",
"&X&X&X&X%X#X[.J.O.l G r.y.' F y p K $.5.M.M.M.L.^.).).'.[.#X%X&X&X&X&X%X&X&X&X&X#X}.Q.K.U. X%X%X%X%X%X%X&X&X%X&X%X&X&X&X&X&X&X&X",
"&X&X&X&X+X(.9. .J ! y.h.g.y._ E G C H J / 1.N.I.^.(.).).}.%X%X%X%X&X%X&X%X&X%X#X}.H.2.7.U..X$XoX+X#X$X%X%X%X&X%X%X&X%X&X%X&X&X&X",
"&X&X&X&X XK.O.0 S f.x.b.l.f.y.t.) T V l C >.N.U.!.^.(.). X@X#X+X+X@X#X$X#X#X+X[.K.[ a 7.^. XXX(.^.). XXX+XoX+X@X#X#X$X%X%X&X%X&X",
"&X&X&X%X XK.| 3 T z.m.m.x.h.y.r.( E T S H @.9.I.Y.Q.!.'.}.[.[.).^.(.).[.[.}.).9.[ 8 a H.[.}.(.6.$.4.H.U.^.!.~.~._.].XX%X%X%X%X&X",
"&X&X&X&XXXQ.2.p R j.m.m.n.l.a.e.( ( ! G H @.8.K.P.P.Q.^.I.K.K.8.4.7.d.H.J.K.d.| 8 $ a H.^.^.H.} p J +.5.5.3.6.B.T./. X+X$X%X%X%X",
"&X&X&X%X$X XP.| I ' x.A.Z.b.l.a.r._ ^ I v @.J.P.K.K.d.2.| f f u w u s i a f [ f a * q 2.7.2.o.I ! ` :.:.U d O.M.W.{..X+X#X$X%X%X",
"&X&X&X&X&X$X(.4.X.T f.m.m.x.l.g.a.e.( S d | 8.K.9.2.| a 0 2 4 7 7 7 < + o q f [ [ q 8 f | H D ' g.k.h.r.S t  .N.^.}.oX+X+X#X$X%X",
"&X&X&X%X%X%X[.K.+.V ( g.f.y.a.a.a.r.( D i f ,.2.| a 9 5 Z R _ r.t.' T 4 $ [ 4.2.| q $ 8 u D ` z.m.Z.b.g./ L 3.~.'.{. X.XXX+X#X#X",
"&X&X&X%X&X%X}.P.O.3 V ^ ! T ! ( e.r.( F t e [ [ w 2 7 F e.g.x.m.m.x.t.j 8 | 4.$.f 1 $ $ 2 G y.m.F.G.m.f.:.#.9.^.).[.}.}..XXX+X#X",
"&X&X&X&X%X%X[.H.[ @ > t i u 6 l R ) ( G t * q 9 2 z _ h.b.C.A.S.A.n.f.F t s [ a 8 $ o o > G a.m.G.D.b.' *.2.H.!.^.(.'.}. X.XoX#X",
"&X&X&X&X%X%X[.J.| w f | | [ s i l F E T 5 & $ - 7 ( l.Z.D.D.F.F.S.m.k.( V c s 0 > > & o - S a.m.G.D.z.^ o.2.H.U.!.^.(.[.}. XoX@X",
"&X&X&X%X&X%X[.P.7.4.d.P.K.d.2.| u 0 Z S 7 - + 4 ^ h.m.D.D.D.D.D.S.C.v.y.( D z z V A j @ # Z p.m.G.D.k.R J $.9.P.U.!.(.).}. XXX+X",
"&X&X&X&X&X%X X(.Q.Q.^.(.Q.P.H.4.[ u y 7 4 > = j t.v.A.F.D.D.D.D.D.S.m.x.f.e.E ( ' r.! < = j ) k.x.h.' D P =.6.H.P.E.^.).[. XXX+X",
"&X&X&X%X%X&X#X+X X X[.Q.P.H.H.H.4...u - @ = 4 S f.b.A.D.D.A.Z.m.A.S.A.m.v.l.k.z.c.c.t.h = 7 A ( ( T V l P ;.<.9.K.U.^.(.[. XXX+X",
"&X&X&X&X&X%X%X$XoX[.^.Q.U.K.H.H.K.4.K 1 + # j E g.b.Z.A.A.b.g.y.y.l.v.C.C.C.n.n.x.f.( 7 = = 7 C D H v L o.>.5.7.J.U.^.).}. XXX@X",
"&X&X&X&X&X&X%X$X X(.^.!.U.U.P.K.K.K.2.d + # V ) g.c.m.A.Z.g.R V j E y.x.n.Z.C.z.r.F 7 - O X @ 0 v | @.$.2.5.7.9.K.U.^.).}. XoX#X",
"&X&X&X&X&X&X$X$X}.(.(.^.Q.Q.U.P.P.U.9.| & # A ] a.z.b.m.m.a.j = # 4 V ~ t.a.y.( V 5 & @ o X $ a | @.,.2.4.7.9.H.P.Q.(.'.}.XX+X#X",
"&X&X&X&X&X%X&X#X}.).).(.^.^.Q.U.U.U.H.@.- > G ] y.h.c.m.m.t.7 @ . . O 3 j S Z 4 O $ $ + + $ 8 [ @.$.,.2.7.9.H.K.U.^.(.[.}.XX+X#X",
"&X&X&X&X&X&X&X%XXX[.'.).(.(.^.^.Q.Q.P.2.9 > S ] y.g.c.m.m.y.j +       % , 7 h +   X $ @ @ $ 8 [ @.@.@.$.2.d.K.U.Q.(.).}. XoX#X#X",
"&X&X&X&X&X&X&X&X$X X[.).).).(.(.^.^.^.9.e > S _ y.g.z.n.m.f.A = .   O & , h h = X + - - & + 8 K | @.@.2.7.K.U.Q.^.).}. XXX+X#X%X",
"&X&X&X&X&X&X&X%X%X%X X[.'.'.).(.(.(.(.H.a > V ) y.f.h.c.m.k.) z # o o & 6 F R V j V V 7 , & q [ @.2.7.d.K.P.Q.^.).[.}.XX+X#X#X%X",
"&X&X&X&X&X&X&X&X&X&X%X}.[.[.[.).).).[.K.f * j R ] a.f.k.c.c.g.^ 7 & @ , z ( r.' ) ' ( z , 8 a @.2.7.9.H.P.U.^.).[.}.XX+X+X#X%X%X",
"&X&X&X&X&X&X&X&X&X%X&X+X[.[.[.[.'.}..X^.@.0 3 Z ] a.a.g.k.c.x.y.T l r c X.%.:.p.a.g.e.j - q f @.4.7.d.K.U.^.(.[.}.XXXX+X#X%X%X%X",
"&X&X&X&X&X&X&X&X&X&X&X%X X[.}.[.[. X#X[.9.v 2 7 ^ r.y.a.f.k.z.f.( W b %.&.%.B p.a.f.( 5 $ q [ $.7.9.K.P.Q.(.'.}.XXoX+X#X%X%X%X&X",
"&X&X&X&X&X&X&X&X&X&X&X&X+X}.}.[.[.@X$X XU.$.q , V ^ t.a.f.y.y.( Y M N q.q.N n Q ~ R V > * f @.4.7.d.K.U.^.).[. XXX@X#X$X%X%X&X&X",
"&X&X&X&X&X&X&X&X&X&X&X&X%X X}.}. X%X%X+X).H.f 1 6 Z ) t.y.r._ F x M q.0.0.0.n x j 5 , * q | 2.4.9.H.P.Q.(.[. XXX+X#X$X%X%X&X%X&X",
"&X&X&X&X&X&X&X&X&X&X&X&X&X$X X X%X%X%X#XXX^.2.d 1 , V R _ ] ) F k B u.u.w.m g : = @ - w f @.4.7.H.K.U.^.).}. X+X#X#X%X&X&X%X&X&X",
"&X&X&X&X&X&X&X&X&X&X&X&X&X&X&X&X&X&X%X$X@X}.P.$.e > < j G E E A h b -.i.%.b ; O X $ 8 f @.,.4.7.H.P.Q.(.[. XXX+X#X%X%X%X&X&X&X&X",
"&X&X&X&X&X&X&X&X&X&X&X&X&X&X&X&X&X%X%X%X$XoX[.P.2.f 8 & , 7 7 7 ; r r a w * o o * q f | $.4.7.d.K.U.^.).}. X+X#X$X%X%X&X&X&X&X&X",
"&X&X&X&X&X&X&X&X&X&X&X&X&X&X&X&X&X&X&X%X%X@XoX[.P.4.f q * & , > ; * $ $ $ o $ 8 w f | $.4.7.9.K.U.Q.(.'.}.XX+X#X$X&X&X&X&X&X&X&X",
"&X&X&X&X&X&X&X&X&X&X&X&X&X&X&X&X&X%X&X%X%X#X+X X).U.H.$.f a w 8 * $ * * 8 q a f | $.2.4.7.9.H.K.P.U.^.}. X+X#X$X%X&X&X%X&X&X&X&X",
"&X&X&X&X&X&X&X&X&X&X&X&X&X&X&X&X&X&X&X%X%X#X@XXX X[.(.P.4.$.| f a a a a f [ | @.2.4.4.7.9.H.H.H.H.P.U.).XX+X#X%X%X%X&X&X&X&X&X&X",
"&X&X&X&X&X&X&X&X&X&X&X&X&X&X&X&X&X&X&X&X%X%X#X+X.X X[.(.U.K.H.7.2.2.2.,.$.2.4.4.4.7.9.H.H.9.9.H.P.U.Q.^.XX#X$X%X%X&X&X&X&X&X&X&X",
"&X&X&X&X&X&X&X&X&X&X&X&X&X&X&X%X+X#X%X&X&X%X$X#XoX.X}.[.).^.Q.P.K.H.H.9.9.9.9.9.H.H.H.K.H.H.H.P.U.Q.^.(. X#X%X%X&X%X&X&X&X&X&X&X",
"&X&X&X&X&X&X&X&X&X&X&X&X&X&X%X X}.}.XX&X%X&X%X$X#X+XXX}.[.).^.^.U.U.P.K.K.K.K.K.K.P.P.U.H.K.P.U.Q.^.(.).XX%X%X&X&X&X&X&X&X&X&X&X",
"&X&X&X&X&X&X&X&X&X&X&X&X&X&XXX}.}.}.}.#X&X%X&X%X#X+XXXXX X}.'.(.^.!.Q.Q.U.U.U.U.U.Q.!.^.U.P.U.!.^.^.(.).+X%X%X&X&X&X&X&X&X&X&X&X",
"&X&X&X&X&X&X&X&X&X&X&X&X&X&X#X}.}.}.[.#X&X&X%X%X%X#X#XoXXX X}.[.'.).(.(.^.^.^.^.^.(.(.).^.Q.!.^.(.).).[.#X&X&X%X&X&X&X&X&X&X&X&X",
"&X&X&X&X&X&X&X&X&X&X&X&X&X&X&X+X.X.XoX%X&X%X&X%X%X%X#X#X+XXXXX X}.}.[.'.).).).).'.[.}.}.}.^.(.(.).).[. X%X%X&X&X&X&X&X&X&X&X&X&X",
"&X&X&X&X&X&X&X&X&X&X&X&X&X&X&X&X&X&X&X&X&X&X&X&X%X%X%X%X#X@X+XXXXX X X X}.}.}. X X}. X.XXX}.'.).).[.}.%X&X&X&X&X&X&X&X&X&X&X&X&X",
"&X&X&X&X&X&X&X&X&X&X&X&X&X&X&X&X&X&X&X&X&X&X&X%X&X&X%X%X%X$X#X#X+XoXXXXXXXXXXXXXXXXXoX+X#X#X+X}.}. X#X&X%X&X&X&X&X&X&X&X&X&X&X&X",
"&X&X&X&X&X&X&X&X&X&X&X&X&X&X&X&X&X&X&X&X&X&X&X&X&X%X&X%X%X%X%X%X#X#X#X+X+X+X+X+X+X@X#X#X#X%X%X%X%X%X&X&X&X&X&X&X&X&X&X&X&X&X&X&X",
"&X&X&X&X&X&X&X&X&X&X&X&X&X&X&X&X&X&X&X&X&X&X&X&X&X&X&X&X%X&X%X%X%X%X#X%X#X#X#X%X%X%X$X%X%X%X&X%X%X&X&X&X&X&X&X&X&X&X&X&X&X&X&X&X",
"&X&X&X&X&X&X&X&X&X&X&X&X&X&X&X&X&X&X&X&X&X&X&X&X&X&X&X&X&X%X%X&X%X%X%X%X%X%X%X%X%X%X%X%X%X&X%X&X&X%X&X&X&X&X&X&X&X&X&X&X&X&X&X&X",
"&X&X&X&X&X&X&X&X&X&X&X&X&X&X&X&X&X&X&X&X&X&X&X&X&X&X&X&X&X&X&X%X&X&X&X%X&X%X&X%X&X%X&X&X%X&X&X&X&X&X&X&X&X&X&X&X&X&X&X&X&X&X&X&X"
};
