/* XPM */
static char *_dca6e60c1ac4ed2a84f95ef767c3de03lxcyYgjLz34rpkG[] = {
/* columns rows colors chars-per-pixel */
"64 64 129 2 ",
"   c None",
".  c #010100",
"X  c #080704",
"o  c #0C0A05",
"O  c #0B0B0B",
"+  c #110E07",
"@  c #110F0C",
"#  c #151209",
"$  c #18160B",
"%  c #1E1A0D",
"&  c #0E0E10",
"*  c #141414",
"=  c #1A1B1A",
"-  c #211D0F",
";  c #2B1212",
":  c #221B15",
">  c #341D1C",
",  c #262111",
"<  c #2A2513",
"1  c #2F2915",
"2  c #322B16",
"3  c #372F18",
"4  c #3A331A",
"5  c #1F1E20",
"6  c #252526",
"7  c #2C2C2C",
"8  c #332725",
"9  c #373323",
"0  c #3A362E",
"q  c #323232",
"w  c #461313",
"e  c #4D1718",
"r  c #40371C",
"t  c #423A1D",
"y  c #473E20",
"u  c #493F20",
"i  c #4D3636",
"p  c #4F3837",
"a  c #4C4322",
"s  c #514623",
"d  c #554B26",
"f  c #584C27",
"g  c #5A4F28",
"h  c #5C5128",
"j  c #62552C",
"k  c #66582D",
"l  c #695C2F",
"z  c #6D5F30",
"x  c #6F6131",
"c  c #746533",
"v  c #776835",
"b  c #796936",
"n  c #7F6F38",
"m  c #7F7038",
"M  c #4E4E4E",
"N  c #646464",
"B  c #6A6A6A",
"V  c #830303",
"C  c #8F1616",
"Z  c #921D1D",
"A  c #8D2627",
"S  c #923132",
"D  c #9D3434",
"F  c #806F39",
"G  c #84743B",
"H  c #88763C",
"J  c #8E7C3F",
"K  c #917E40",
"L  c #9B6969",
"P  c #9A7072",
"I  c #967A7A",
"U  c #A66162",
"Y  c #958242",
"T  c #9A8544",
"R  c #9D8946",
"E  c #A18C47",
"W  c #A38E49",
"Q  c #A7924A",
"!  c #A6914A",
"~  c #A9934B",
"^  c #AA934B",
"/  c #AB954C",
"(  c #AE974D",
")  c #AE984D",
"_  c #AF994E",
"`  c #B1994E",
"'  c #B19A4E",
"]  c #B39B4F",
"[  c #B49C50",
"{  c #B59D50",
"}  c #B69F51",
"|  c #B8A152",
" . c #BAA152",
".. c #BAA153",
"X. c #BBA253",
"o. c #BAA253",
"O. c #BCA353",
"+. c #BCA354",
"@. c #BDA454",
"#. c #BDA554",
"$. c #BFA655",
"%. c #BCA353",
"&. c #C1A856",
"*. c #C2A856",
"=. c #C4AA57",
"-. c #C5AB57",
";. c #C7AC58",
":. c #C8AE59",
">. c #C9AE59",
",. c #C9AF59",
"<. c #CAAF59",
"1. c #C9AE59",
"2. c #CBB05A",
"3. c #CCB05A",
"4. c #CCB15A",
"5. c #CCB15B",
"6. c #CDB15B",
"7. c #CDB25B",
"8. c #CEB25B",
"9. c #CEB35B",
"0. c #CFB45C",
"q. c #CCB15A",
"w. c #D0B55C",
"e. c #D1B55C",
"r. c #8D8C8D",
"t. c #B08D8D",
"y. c #B2B2B2",
"u. c #BBBABB",
"i. c #C6ACAD",
/* pixels */
"                                                                                                                                ",
"                                                                                                                                ",
"                                                                                                                                ",
"                                                                                                                                ",
"                                                                                                                                ",
"                                                                                                                                ",
"                                                                                                                                ",
"                                                                                                                                ",
"                                                                                                                                ",
"                                                                                                                                ",
"                                                                                                                                ",
"                                                                                                                                ",
"                                                                                                                                ",
"                                                                                                                                ",
"                                                                                                                                ",
"                                                                                                                                ",
"                              l                                                                                                 ",
"                            T H                                                                                                 ",
"                            a t                                                                                                 ",
"                          . . .                                                                                                 ",
"                          . o + .                                                                                               ",
"                          . 4 F o .                                                                                             ",
"                        . . y Q G # . .       z t                                                                               ",
"                        . 4 R c W R 4 X . . H R                                   .                                             ",
"                    . . 1 ~ :.' F Y / J g : 3                                   . .                                             ",
"                    . . n 8.*.} / G k h R l .                                 . .       . .                                     ",
"                      . < ] :.X.! K G d Y f .                               . . .       o < o . . . 2 J d                       ",
"                        . c 8.:.-.{ ~ v E s .             . . . . . . .   . & . .   . X d Q J l f # o                           ",
"                        . 4 :.*.( R H l Y d .         . . . X . o + . . . 7 B X . . % j } 8.8.w.H o                             ",
"                        . - H k f v ~ W H k .       . . $ 2 c K K R , . q u.N .   . t Q :.8.<.*.4 .                             ",
"                        . . X . . X 1 K K c .   . . X < J ;.:.8.8.X.2 O r.y.6 . .   % E 8.2.8.Q +                               ",
"                        . . .       . o l G - . . . a #.:.<.8.:.:.~ b o 6 M O . . . # Q 6.2.8.J X                               ",
"                        .             . o b f . . y ' 2.2.2.2.2.8.' K c + . o s X . 1 $.8.9.0.H X                               ",
"                                        . % l o o H *.2.2.2.2.2.8.<.E H J l z { h . 1 E X.J j 2 t v                             ",
"                                          . o X a J | 2.2.2.2.2.:.8.:./ K R } w.R X . 4 < X . . d G                             ",
"                                          . . X z R -.,.2.2.,.-.6.6.8.8.<.:.<.6.X.a . .                                         ",
"                                            . % m Y R | q.,.l 3 c } 6.<.<.6.;.v t 2 . .                                         ",
"                                            . < H J Y #.q.#., . . : z [ <.! t o & # X .                                         ",
"                                          . . - H J J W ,.#., . . . . < f $ . O = + X .                                         ",
"                                            . < G J K ) -.-.3 . . . * * 4 . . * * # . .                                         ",
"                                            . X z K J K ) q.z . . * = : K < . O < t .                                           ",
"                                            . . g J J K Q W { u X O o h } Q l z G + .                                           ",
"                                              . $ b K J K K #.| m $ = 0 9 c :.6.b X .                                           ",
"                                              . . a G K K K K K a p t.U P 8 K K o .                                             ",
"                                                . . y J J J c g > A Z V C w 4 4 . .                                             ",
"                                                . . o 4 c J v t e D D C S ; . . .                                               ",
"                                                    . . % 4 h s : I i.L p X . .                                                 ",
"                                                    . . . . o # . O = & . .                                                     ",
"                                                          . . . . . . .                                                         ",
"                                                                                                                                ",
"                                                                                                                                ",
"                                                                                                                                ",
"                                                                                                                                ",
"                                                                                                                                ",
"                                                                                                                                ",
"                                                                                                                                ",
"                                                                                                                                ",
"                                                                                                                                ",
"                                                                                                                                ",
"                                                                                                                                ",
"                                                                                                                                ",
"                                                                                                                                ",
"                                                                                                                                ",
"                                                                                                                                "
};
