/* XPM */
static char *d2c3e6b4876f48aeb95c5b96e95b35e6FDA8K80upOEMhApW[] = {
/* columns rows colors chars-per-pixel */
"64 64 147 2 ",
"   c #010101",
".  c #0C0504",
"X  c #0D0C0B",
"o  c #120706",
"O  c #170807",
"+  c #110D0C",
"@  c #1C0A09",
"#  c #13110F",
"$  c #141413",
"%  c #191614",
"&  c #171817",
"*  c #1D1916",
"=  c #171919",
"-  c #1B1B1B",
";  c #240C0A",
":  c #2D0D0C",
">  c #35110E",
",  c #211C17",
"<  c #231E19",
"1  c #3D1410",
"2  c #26211D",
"3  c #2A241E",
"4  c #242424",
"5  c #2C2620",
"6  c #2F2822",
"7  c #2B2B2B",
"8  c #342D25",
"9  c #372F28",
"0  c #383027",
"q  c #3B322A",
"w  c #343434",
"e  c #3C3C3C",
"r  c #441512",
"t  c #4A1714",
"y  c #4E1915",
"u  c #521915",
"i  c #5E1D19",
"p  c #631F1A",
"a  c #65201B",
"s  c #6E231D",
"d  c #73241F",
"f  c #42382E",
"g  c #453B31",
"h  c #4A3E34",
"j  c #7A2620",
"k  c #4E4237",
"l  c #4F4338",
"z  c #52463A",
"x  c #55493C",
"c  c #594C3F",
"v  c #434343",
"b  c #4C4C4C",
"n  c #5B4D41",
"m  c #5E5043",
"M  c #535353",
"N  c #5B5B5B",
"B  c #635446",
"V  c #675749",
"C  c #6B5B4B",
"Z  c #705F4F",
"A  c #746352",
"S  c #796755",
"D  c #7A6856",
"F  c #7E6B59",
"G  c #646464",
"H  c #6C6C6C",
"J  c gray45",
"K  c #7C7C7C",
"L  c #8C2C25",
"P  c #922F27",
"I  c #973028",
"U  c #9C322A",
"Y  c #A0332B",
"T  c #816E5B",
"R  c #85715E",
"E  c #8A7662",
"W  c #8F7964",
"Q  c #927C66",
"!  c #957E69",
"~  c #978069",
"^  c #9A836C",
"/  c #9E8670",
"(  c #9F8870",
")  c #A48B73",
"_  c #A88E76",
"`  c #AC9279",
"'  c #B2977D",
"]  c #B4997F",
"[  c #838383",
"{  c #8B8B8B",
"}  c #949494",
"|  c #9B9B9B",
" . c #B69B81",
".. c #B99D83",
"X. c #BDA186",
"o. c #A3A3A3",
"O. c #ABABAB",
"+. c #B5B5B5",
"@. c #BBBBBB",
"#. c #C0A387",
"$. c #C3A58A",
"%. c #C6A88C",
"&. c #C9AB8E",
"*. c #CDAE91",
"=. c #CFB092",
"-. c #D3B395",
";. c #D7B698",
":. c #D8B799",
">. c #DBBA9B",
",. c #E1BF9F",
"<. c #E3C0A0",
"1. c #E4C0A0",
"2. c #C1C1C1",
"3. c #C4C4C4",
"4. c #C5C5C5",
"5. c #CACACA",
"6. c #CCCCCC",
"7. c #CECECE",
"8. c gray81",
"9. c gray82",
"0. c #D2D2D2",
"q. c gray83",
"w. c gray84",
"e. c #D8D8D8",
"r. c #DBDBDB",
"t. c #DFDFDF",
"y. c #E1E1E1",
"u. c gray89",
"i. c #E4E4E4",
"p. c gray91",
"a. c #E9E9E9",
"s. c #EAEAEA",
"d. c gray92",
"f. c gray93",
"g. c #EFEFEF",
"h. c gray94",
"j. c #F1F1F1",
"k. c #F3F3F3",
"l. c #F4F4F4",
"z. c gray97",
"x. c #F8F8F8",
"c. c #F9F9F9",
"v. c gray98",
"b. c #FBFBFB",
"n. c gray99",
"m. c #FDFDFD",
"M. c white",
/* pixels */
"M.M.M.M.M.M.M.M.M.M.M.M.M.M.M.M.M.M.M.M.M.M.M.M.M.M.M.M.M.M.M.M.M.M.M.M.M.M.M.M.M.M.M.M.M.M.M.M.M.M.M.M.M.M.M.M.M.M.M.M.M.M.M.M.",
"M.M.M.M.M.M.M.M.M.M.M.M.M.M.M.M.M.M.M.M.M.M.M.M.M.M.M.M.M.M.M.M.M.M.M.M.M.M.M.M.M.M.M.M.M.M.M.M.M.M.M.M.M.M.M.M.M.M.M.M.M.M.M.M.",
"M.M.M.M.M.M.M.M.M.M.M.M.M.M.M.M.M.M.M.M.M.M.M.M.M.M.M.M.M.M.M.M.M.M.M.M.M.M.M.M.M.M.M.M.M.M.M.M.M.M.M.M.M.M.M.M.M.M.M.M.M.M.M.M.",
"M.M.M.M.M.M.M.M.M.M.M.M.M.M.M.M.M.M.M.M.M.M.M.M.M.M.M.M.M.M.M.M.M.M.M.M.M.M.M.M.M.M.M.M.M.M.M.M.M.M.M.M.M.M.M.M.M.M.M.M.M.M.M.M.",
"M.M.M.M.M.M.M.M.M.M.M.M.M.M.M.M.M.M.M.M.M.M.M.M.M.M.M.M.M.M.M.M.M.M.M.M.M.M.M.M.M.M.M.M.M.M.M.M.M.M.M.M.M.M.M.M.M.M.M.M.M.M.M.M.",
"M.M.M.M.M.M.M.M.M.M.M.M.M.M.M.M.M.M.M.M.M.M.M.M.M.M.M.M.M.M.M.M.M.M.M.M.M.M.M.M.M.M.M.M.M.M.M.M.M.M.M.M.M.M.M.M.M.M.M.M.M.M.M.M.",
"M.M.M.M.M.M.M.M.M.M.M.M.M.M.M.M.M.M.M.M.z.x.M.M.M.M.M.M.M.M.M.M.M.M.M.M.M.z.M.M.M.M.M.M.M.M.M.M.M.M.M.M.M.M.M.M.M.M.M.M.M.M.M.M.",
"M.M.M.M.M.M.M.M.M.M.M.M.M.M.M.M.M.M.M.x.t.a.M.M.M.M.M.M.M.M.M.M.M.M.M.M.f.9.f.M.M.M.M.M.M.M.M.M.M.M.M.M.M.M.M.M.M.M.M.M.M.M.M.M.",
"M.M.M.M.M.M.M.z.z.M.M.M.M.M.M.M.M.M.M.M.z.M.M.M.M.M.M.M.M.M.M.M.M.M.M.M.z.a.x.M.M.M.M.M.M.M.M.M.M.M.M.M.M.M.M.M.M.M.M.M.M.M.M.M.",
"M.M.M.M.M.M.z.9.9.i.M.M.M.M.M.M.M.M.M.M.M.M.M.M.M.M.M.M.M.M.M.M.M.M.M.M.M.M.M.M.M.M.M.M.M.M.M.M.M.M.M.M.M.M.M.M.M.M.M.M.M.M.M.M.",
"M.M.M.M.M.M.z.7.9.f.M.M.M.M.M.M.M.M.M.M.M.M.M.M.M.M.z.t.7.2.@.+.@.3.w.a.x.M.M.M.M.M.M.M.M.M.M.M.M.M.M.M.M.M.M.M.M.M.M.M.M.M.M.M.",
"M.M.M.M.M.M.M.f.z.M.M.M.M.M.M.M.M.M.M.M.M.M.M.h.y.2.o.{ J N M M N G K } +.9.a.x.M.M.M.M.M.M.M.M.M.M.M.M.M.M.M.M.M.M.M.M.M.M.M.M.",
"M.M.M.M.M.M.M.M.M.M.M.M.M.M.M.M.M.M.M.M.M.x.a.2.{ M 7 & # X X # X X + - e G | e.h.M.M.M.M.M.M.M.M.M.M.M.M.M.M.M.M.M.M.M.M.M.M.M.",
"M.M.M.M.M.M.M.M.M.M.M.M.M.M.M.M.M.M.M.M.x.9.{ b - & * 8 k B C Z V n g 5 % & w N O.i.M.M.M.M.M.M.M.M.M.M.M.M.M.M.M.M.M.M.M.M.M.M.",
"M.M.M.M.M.M.M.M.M.M.M.M.M.M.M.M.M.M.M.f.@.H 9 $ 2 k A Q ) ] X.X...' / E B q * - b { e.M.M.M.M.M.M.M.M.M.M.M.M.M.M.M.M.M.M.M.M.M.",
"M.M.M.M.M.M.M.M.M.M.M.M.M.M.M.M.M.M.h.O.M & # q A ` &.:.,.>.>.>.,.>.>.-.$.! m 2 X w [ e.z.M.M.M.M.x.f.M.M.M.M.M.M.M.M.M.M.M.M.M.",
"M.M.M.M.M.M.M.M.M.M.M.M.M.M.M.M.M.z.O.b $ % c ^ &.:.:.>.>.>.>.>.:.>.>.>.>.:.X.E q X 7 { e.M.M.M.a.w.7.f.M.M.M.M.M.M.M.M.M.M.M.M.",
"M.M.M.M.M.M.M.M.M.M.M.M.M.M.M.M.z.5.M & % B _ -.>.>.>.>.:.>.:.>.>.>.,.<.1.1.>.%.W g # w | i.M.M.y.5.7.h.M.M.M.M.M.M.M.M.M.M.M.M.",
"M.M.M.M.M.M.M.M.M.M.M.M.M.M.M.M.i.{ 7 # l _ -.,.:.>.>.>.>.>.>.:.:.>.>.,.,.,.>.>.*.E 9 # M +.x.M.h.9.y.M.M.M.M.M.M.M.M.M.M.M.M.M.",
"M.M.M.M.M.M.M.M.M.M.M.M.M.M.M.z.2.v $ 8 E -.>.:.>.>.:.:.>.:.>.>.>.>.>.>.>.:.>.>.>.X.D * 4 J i.x.M.z.M.M.M.M.M.M.M.M.M.M.M.M.M.M.",
"M.M.M.M.M.M.M.M.x.M.M.M.M.M.M.y.{ - % c _ -.:.:.:.>.>.>.:.>.>.:.>.>.:.:.>.>.>.>.>.:. .k $ k +.h.M.M.M.M.M.M.M.M.M.M.M.M.M.M.M.M.",
"M.M.M.M.M.M.M.x.w.f.M.M.M.M.M.@.N + 0 S ` -.>.>.>.>.:.>.>.:.$.` _ ] &.>.>.>.>.>.>.,.=.E 3 4 [ y.M.M.M.M.M.M.M.M.M.M.M.M.M.M.M.M.",
"M.M.M.M.M.M.M.M.y.z.M.M.M.M.x.| 9 $ x E _ %.;.>.>.:.>.:.-.` F n z B E ..-.>.:.%. . . .) k - M 7.M.M.M.M.M.M.M.M.M.M.M.M.M.M.M.M.",
"M.M.M.M.M.M.M.M.M.M.M.M.M.x.a.K - * C ! ( #.-.>.>.>.>.-.` n 2 $ $ $ 6 Z X.:.X.E n z C ! c * w +.z.M.M.M.M.M.M.M.M.M.M.M.M.M.M.M.",
"M.M.M.M.M.M.M.M.M.M.M.M.M.x.e.H # 8 S ^ ^ ] =.>.>.:.>.#.C 3 & 4 4 4 - 6 W ` R 8 - - 2 g q 2 4 o.f.M.M.M.M.M.M.M.M.M.M.M.M.M.M.M.",
"M.M.M.M.M.M.M.M.M.M.M.M.M.x.5.N X q F ( ^ ) $.:.>.>.-.) 0 & - 7 7 7 - & n C h $ - - - & * # & { y.M.M.M.M.M.M.M.M.M.M.M.M.M.M.M.",
"M.M.M.M.M.M.M.M.M.M.M.M.M.x.@.M X f R ( ^ ( ] -.>.,.&.R * = 7 w 7 w 4 = 8 8 < - 7 7 4 $ X   $ { t.M.M.M.M.M.M.M.M.M.M.M.M.M.M.M.",
"M.M.M.M.M.M.M.M.M.M.M.M.M.x.@.M # k R ^ ^ ^ ` $.;.,.$.T % & 4 7 7 7 7 - - % % - 7 7 7 = .   $ [ t.M.M.M.M.M.M.M.M.M.M.M.M.M.M.M.",
"M.M.M.M.M.M.M.M.M.M.M.M.M.z.2.M X f T ( ^ ^ ( ] -.>.$.T % % 4 7 7 w 7 - < % % - 7 7 7 & .   $ { t.M.M.M.M.M.M.M.M.M.M.M.M.M.M.M.",
"M.M.M.M.M.M.M.M.M.M.M.M.M.x.7.G # 0 F ^ ^ ~ ^ _ $.;.=.R 2 # - 7 7 7 4 = 9 0 2 $ - 7 4 # .   & | i.M.M.M.M.M.M.M.M.M.M.M.M.M.M.M.",
"M.M.M.M.M.M.M.M.M.M.M.M.M.x.y.J # 3 A ^ ^ ~ ~ ^ ' *.-.) 0 $ & 4 7 4 - % m A z $ & - = $ X X 4 O.h.M.M.M.M.M.M.M.M.M.M.M.M.M.M.M.",
"M.M.M.M.M.M.M.M.M.M.M.M.M.M.h.{ 4 * B Q ^ ^ ^ ^ ( ] -.#.C 2 X & - = & 5 Q ..! q $ # 2 g 2 $ v 2.M.M.M.M.M.M.M.M.M.M.M.M.M.M.M.M.",
"M.M.M.M.M.M.M.M.M.M.M.x.a.a.x.O.v X k F ^ ^ ^ ^ ^ ) X.&.` B 3 $ $ % 9 A X.:.%.~ A Z D Z 5 = G e.M.M.M.M.M.M.M.M.M.M.M.M.M.M.M.M.",
"M.M.M.M.M.M.M.M.M.M.h.e.8.7.e.2.H # 3 V ~ ^ ~ ^ ^ ^ ) X.*._ A l g x F ..:.>.>.:.%.$. .V , w | a.M.M.M.M.M.M.M.M.M.M.M.M.M.M.M.M.",
"M.M.M.M.M.M.M.M.z.e.7.5.7.5.5.2.o.7 # f T ~ ^ ^ ^ ^ ^ ) X.&.&.X. .X.-.:.:.>.:.>.>.-./ 8 $ N 7.x.M.M.M.M.M.M.M.M.M.M.M.M.M.M.M.M.",
"M.M.M.M.M.M.M.M.y.7.6.6.7.7.7.5.+.G % 2 x R ^ ^ ^ ^ ^ ^ ( ] %.-.:.:.>.:.*.*.:.>.>._ n # w } h.M.M.M.M.M.M.M.M.M.M.M.M.M.M.M.M.M.",
"M.M.M.M.M.M.M.M.w.5.7.7.5.7.5.7.2.O.b + 2 c R ( ^ ^ ^ ^ ^ ( ` X.*.*.%. .) _ X.-.' V , < J 9.M.M.M.M.M.M.M.M.M.M.M.M.M.M.M.M.M.M.",
"M.M.M.M.M.M.M.x.w.5.7.5.7.5.7.5.5.w.{ e # 3 B R ~ ~ ^ ^ ~ ^ ^ _  . .` / ~ / ( _ V < & M @.z.M.M.M.x.h.z.M.M.M.M.M.M.M.M.M.M.M.M.",
"M.M.M.M.M.M.M.M.i.5.5.7.7.7.7.5.5.e.e.{ 7 X 2 k D W ^ ^ ^ ^ ^ ^ ^ ^ / ' X. .E l % & b +.f.M.M.M.h.e.7.7.w.x.M.M.M.M.M.M.M.M.M.M.",
"M.M.M.M.M.M.M.M.x.t.5.7.5.7.5.7.5.e.x.e.} e # $ 8 z Z R W ~ ^ ~ ^ Q W E S n 8 $ 4 G +.a.M.M.M.h.9.7.9.e.a.x.M.M.M.M.M.M.M.M.M.M.",
"M.M.M.M.M.M.M.M.M.z.t.5.7.5.7.5.3.7.x.M.i.o.N 4 $ - 8 h n m C C B B z f 5 & & w J +.i.M.M.M.M.x.f.h.z.M.M.M.M.M.M.M.M.M.M.M.M.M.",
"M.M.M.M.M.M.M.M.M.M.z.w.5.7.5.O.} o.e.f.a.i.@.K e $ . . # - , 2 < % X .   $ b } 3.3.+.e.i.f.f.z.M.M.M.M.M.M.M.M.M.M.M.M.M.M.M.M.",
"M.M.M.M.M.M.M.M.M.M.M.f.7.2.o.N w e H ~ K o.7.t.+.M $   . o o o o O O .   b o.9.} b w G K [ { @.a.M.M.M.M.M.M.M.M.M.M.M.M.M.M.M.",
"M.M.M.M.M.M.M.M.M.M.M.z.9.+.N 4   X 4 4 4 w K 2.a.K 4 . : r y u u i t ; o G 2.o.b X X - 4 4 w M o.f.M.M.M.M.M.M.M.M.M.M.M.M.M.M.",
"M.M.M.M.M.M.M.M.M.M.M.M.t.| w               7 [ a.| 7 o r s P P P I s ; = [ 5.J -             X G 7.x.M.M.M.M.M.M.M.M.M.M.M.M.M.",
"M.M.M.M.M.M.M.M.M.M.M.M.h.O.e X             X G e.o.e o 1 j P U Y U a @ 7 | e.J 4               v o.z.M.M.M.M.M.M.M.M.M.M.M.M.M.",
"M.M.M.M.M.M.M.M.M.M.M.M.M.e.N &             X N e.@.b . > s P U Y L u o v +.a.o.w               e o.z.M.M.M.M.M.M.M.M.M.M.M.M.M.",
"M.M.M.M.M.M.M.M.M.M.M.M.M.z.o.e             - H i.9.G . ; p P U Y d > + H 5.x.w.N X             M @.z.M.M.M.M.M.M.M.M.M.M.M.M.M.",
"M.M.M.M.M.M.M.M.M.M.M.M.M.x.9.H X           e | z.a.[ - O t j P L y @ 4 | i.M.f.{ w         . & J t.x.M.M.M.M.M.M.M.M.M.M.M.M.M.",
"M.M.M.M.M.M.M.M.M.M.M.M.M.M.z.O.v X     X - K w.M.z.o.e . ; t p y ; $ b 3.x.M.M.5.H $ .     X M +.M.M.M.M.M.M.M.M.M.M.M.M.M.M.M.",
"M.M.M.M.M.M.M.M.M.M.M.M.M.M.M.t.O.N 7 7 v [ 7.x.M.w.| M & . O @ O   - H w.M.M.M.h.2.J e 7 w G O.e.i.f.M.M.M.M.M.M.M.M.M.M.M.M.M.",
"M.M.M.M.M.M.M.M.M.M.M.M.M.M.M.M.a.@.} { o.e.x.M.a.{ N w & X & 7 7 $ & b { @.i.x.M.h.7.o.{ } O.3.7.5.7.y.M.M.M.M.M.M.M.M.M.M.M.M.",
"M.M.M.M.M.M.M.M.M.M.M.M.M.M.M.M.M.M.x.z.M.M.M.x.9.b X     & e H J w .   - M | i.x.M.M.z.a.9.5.5.7.5.7.7.z.M.M.M.M.M.M.M.M.M.M.M.",
"M.M.M.M.M.M.M.M.M.M.M.M.M.M.M.h.i.f.M.M.M.M.M.z.3.v .       v } @.N .   . X e | a.M.M.M.t.7.7.7.7.7.5.7.a.M.M.M.M.M.M.M.M.M.M.M.",
"M.M.M.M.M.M.M.M.M.M.M.M.M.M.h.9.5.7.t.M.M.M.M.x.t.{ N M b M K 3.i.o.G M b b H +.f.M.M.x.w.5.7.5.5.7.5.5.a.M.M.M.M.M.M.M.M.M.M.M.",
"M.M.M.M.M.M.M.M.M.M.M.M.M.M.t.7.7.5.7.a.M.M.M.M.z.e.2.@.+.+.7.a.z.t.2.+.+.+.3.y.x.M.M.M.w.5.5.7.7.5.7.7.f.M.M.M.M.M.M.M.M.M.M.M.",
"M.M.M.M.M.M.M.M.M.M.M.M.M.M.i.7.5.5.7.y.M.M.M.M.M.M.M.x.M.z.z.M.M.x.x.x.M.x.M.M.M.M.M.M.t.5.5.7.7.7.7.9.z.M.M.M.M.M.M.M.M.M.M.M.",
"M.M.M.M.M.M.M.M.M.M.M.M.M.M.M.i.w.w.y.x.M.M.M.M.M.M.M.M.M.M.M.M.M.M.M.M.M.M.M.M.M.M.M.M.z.9.5.7.5.5.5.t.M.M.M.M.M.M.M.M.M.M.M.M.",
"M.M.M.M.M.M.M.M.M.M.M.M.M.M.M.M.M.M.M.M.M.M.M.M.M.M.M.M.M.M.M.M.M.M.M.M.M.M.M.M.M.M.M.M.M.f.9.5.7.5.9.z.M.M.M.M.M.M.M.M.M.M.M.M.",
"M.M.M.M.M.M.M.M.M.M.M.M.M.M.M.M.M.M.M.M.M.M.M.M.M.M.M.M.M.M.M.M.M.M.M.M.M.M.M.M.M.M.M.M.M.M.h.t.w.e.h.M.M.M.M.M.M.M.M.M.M.M.M.M.",
"M.M.M.M.M.M.M.M.M.M.M.M.M.M.M.M.M.M.M.M.M.M.M.M.M.M.M.M.M.M.M.M.M.M.M.M.M.M.M.M.M.M.M.M.M.M.M.M.x.M.M.M.M.M.M.M.M.M.M.M.M.M.M.M.",
"M.M.M.M.M.M.M.M.M.M.M.M.M.M.M.M.M.M.M.M.M.M.M.M.M.M.M.M.M.M.M.M.M.M.M.M.M.M.M.M.M.M.M.M.M.M.M.M.M.M.M.M.M.M.M.M.M.M.M.M.M.M.M.M.",
"M.M.M.M.M.M.M.M.M.M.M.M.M.M.M.M.M.M.M.M.M.M.M.M.M.M.M.M.M.M.M.M.M.M.M.M.M.M.M.M.M.M.M.M.M.M.M.M.M.M.M.M.M.M.M.M.M.M.M.M.M.M.M.M.",
"M.M.M.M.M.M.M.M.M.M.M.M.M.M.M.M.M.M.M.M.M.M.M.M.M.M.M.M.M.M.M.M.M.M.M.M.M.M.M.M.M.M.M.M.M.M.M.M.M.M.M.M.M.M.M.M.M.M.M.M.M.M.M.M."
};
