/* XPM */
static char *result[] = {
/* columns rows colors chars-per-pixel */
"64 64 162 2 ",
"   c #535353",
".  c #555555",
"X  c #5A5A5A",
"o  c gray37",
"O  c gray38",
"+  c #626262",
"@  c gray39",
"#  c #646464",
"$  c #656565",
"%  c gray40",
"&  c #676767",
"*  c #686868",
"=  c DimGray",
"-  c #6A6A6A",
";  c gray42",
":  c #6C6C6C",
">  c #6D6D6D",
",  c gray43",
"<  c #6F6F6F",
"1  c gray44",
"2  c #717171",
"3  c #727272",
"4  c gray45",
"5  c #747474",
"6  c gray46",
"7  c #767676",
"8  c #777777",
"9  c gray47",
"0  c #797979",
"q  c gray48",
"w  c #7B7B7B",
"e  c #7C7C7C",
"r  c gray49",
"t  c #7E7E7E",
"y  c gray50",
"u  c #808080",
"i  c #818181",
"p  c gray51",
"a  c #838383",
"s  c #848484",
"d  c gray52",
"f  c #868686",
"g  c gray53",
"h  c #888888",
"j  c #898989",
"k  c #8B8B8B",
"l  c gray55",
"z  c #8D8D8D",
"x  c #8E8E8E",
"c  c gray56",
"v  c #909090",
"b  c gray57",
"n  c #929292",
"m  c #939393",
"M  c gray58",
"N  c #959595",
"B  c gray59",
"V  c #979797",
"C  c #989898",
"Z  c gray60",
"A  c #9A9A9A",
"S  c #9B9B9B",
"D  c gray61",
"F  c #9D9D9D",
"G  c gray62",
"H  c #9F9F9F",
"J  c #A0A0A0",
"K  c gray63",
"L  c #A2A2A2",
"P  c gray64",
"I  c #A4A4A4",
"U  c #A5A5A5",
"Y  c gray65",
"T  c #A7A7A7",
"R  c gray66",
"E  c #A9A9A9",
"W  c #AAAAAA",
"Q  c gray67",
"!  c #ACACAC",
"~  c gray68",
"^  c #AEAEAE",
"/  c #AFAFAF",
"(  c gray69",
")  c #B1B1B1",
"_  c #B2B2B2",
"`  c gray70",
"'  c #B4B4B4",
"]  c gray71",
"[  c #B6B6B6",
"{  c #B7B7B7",
"}  c gray72",
"|  c #B9B9B9",
" . c gray73",
".. c #BBBBBB",
"X. c #BCBCBC",
"o. c gray74",
"O. c gray",
"+. c gray75",
"@. c #C0C0C0",
"#. c #C1C1C1",
"$. c gray76",
"%. c #C3C3C3",
"&. c gray77",
"*. c #C5C5C5",
"=. c #C6C6C6",
"-. c gray78",
";. c #C8C8C8",
":. c gray79",
">. c #CACACA",
",. c #CBCBCB",
"<. c gray80",
"1. c #CDCDCD",
"2. c #CECECE",
"3. c gray81",
"4. c #D0D0D0",
"5. c gray82",
"6. c #D2D2D2",
"7. c LightGray",
"8. c gray83",
"9. c #D5D5D5",
"0. c gray84",
"q. c #D7D7D7",
"w. c #D8D8D8",
"e. c gray85",
"r. c #DADADA",
"t. c gray86",
"y. c gainsboro",
"u. c #DDDDDD",
"i. c gray87",
"p. c #DFDFDF",
"a. c gray88",
"s. c #E1E1E1",
"d. c #E2E2E2",
"f. c gray89",
"g. c #E4E4E4",
"h. c gray90",
"j. c #E6E6E6",
"k. c #E7E7E7",
"l. c gray91",
"z. c #E9E9E9",
"x. c #EAEAEA",
"c. c gray92",
"v. c #ECECEC",
"b. c gray93",
"n. c #EEEEEE",
"m. c #EFEFEF",
"M. c gray94",
"N. c #F1F1F1",
"B. c gray95",
"V. c #F3F3F3",
"C. c #F4F4F4",
"Z. c gray96",
"A. c #F6F6F6",
"S. c gray97",
"D. c #F8F8F8",
"F. c #F9F9F9",
"G. c gray98",
"H. c #FBFBFB",
"J. c gray99",
"K. c #FDFDFD",
"L. c #FEFEFE",
"P. c white",
/* pixels */
"P.P.P.P.P.P.P.P.P.P.P.P.P.P.P.P.P.P.P.P.P.P.P.P.P.P.P.P.P.P.P.P.P.P.P.P.P.P.P.P.P.P.P.P.P.P.P.P.P.P.P.P.P.P.P.P.P.P.P.P.P.P.P.P.",
"P.P.P.P.P.P.P.P.P.P.P.P.P.P.P.P.P.P.P.P.P.P.P.P.P.P.P.P.P.P.P.P.P.P.P.P.P.P.P.P.P.P.P.P.P.P.P.P.P.P.P.P.P.P.P.P.P.P.P.P.P.P.P.P.",
"P.P.P.P.P.P.P.P.P.P.P.P.P.P.P.P.P.P.P.P.P.P.P.P.P.P.P.P.P.P.P.P.P.P.P.P.P.P.P.P.P.P.P.P.P.P.P.P.P.P.P.P.P.P.P.P.P.P.P.P.P.P.P.P.",
"P.P.P.P.P.P.P.P.P.P.P.P.P.P.P.P.P.P.P.P.P.P.P.P.P.P.P.P.P.P.P.P.P.P.P.P.P.P.P.P.P.P.P.P.P.P.P.P.P.P.P.P.P.P.P.P.P.P.P.P.P.P.P.P.",
"P.P.P.P.P.P.P.P.P.P.P.P.P.P.P.P.P.P.P.P.P.P.P.P.P.P.P.P.P.P.P.P.P.P.P.P.P.P.P.P.P.P.P.P.P.P.P.P.P.P.P.P.P.P.P.P.P.P.P.P.P.P.P.P.",
"P.P.P.P.P.P.P.P.P.P.P.P.P.P.P.P.P.P.P.P.P.P.P.P.P.P.P.P.P.P.P.P.P.P.P.P.P.P.P.P.P.P.P.P.P.P.P.P.P.P.P.P.P.P.P.P.P.P.P.P.P.P.P.P.",
"P.P.P.P.P.P.P.P.P.P.P.P.P.P.P.P.P.P.P.P.A.F.P.P.P.P.P.P.P.P.P.P.P.P.P.P.K.S.K.P.P.P.P.P.P.P.P.P.P.P.P.P.P.P.P.P.P.P.P.P.P.P.P.P.",
"P.P.P.P.P.P.P.P.P.P.P.P.P.P.P.P.P.P.P.J.t.x.P.P.P.P.P.P.P.P.P.P.P.P.P.P.M.5.b.P.P.P.P.P.P.P.P.P.P.P.P.P.P.P.P.P.P.P.P.P.P.P.P.P.",
"P.P.P.P.P.P.L.A.S.K.P.P.P.P.P.P.P.P.P.L.D.K.P.P.P.P.P.P.P.P.P.P.P.P.P.P.S.x.G.P.P.P.P.P.P.P.P.P.P.P.P.P.P.P.P.P.P.P.P.P.P.P.P.P.",
"P.P.P.P.P.P.A.6.4.l.P.P.P.P.P.P.P.P.P.P.P.P.P.P.P.P.P.P.P.P.P.P.P.P.P.P.P.P.P.P.P.P.P.P.P.P.P.P.P.P.P.P.P.P.P.P.P.P.P.P.P.P.P.P.",
"P.P.P.P.P.P.Z.3.4.n.P.P.P.P.P.P.P.P.P.P.P.P.P.P.P.P.P.P.P.P.P.P.P.P.P.P.P.P.P.P.P.P.P.P.P.P.P.P.P.P.P.P.P.P.P.P.P.P.P.P.P.P.P.P.",
"P.P.P.P.P.P.K.M.C.P.P.P.P.P.P.P.P.P.P.P.P.P.P.P.P.P.P.P.P.P.P.P.P.P.P.P.P.P.P.P.P.P.P.P.P.P.P.P.P.P.P.P.P.P.P.P.P.P.P.P.P.P.P.P.",
"P.P.P.P.P.P.P.P.P.P.P.P.P.P.P.P.P.P.P.P.P.P.P.P.P.P.P.P.P.P.P.P.P.P.P.P.P.P.P.P.P.P.P.P.P.P.P.P.P.P.P.P.P.P.P.P.P.P.P.P.P.P.P.P.",
"P.P.P.P.P.P.P.P.P.P.P.P.P.P.P.P.P.P.P.P.P.P.P.P.P.P.P.P.P.P.P.P.P.P.P.P.P.P.P.P.P.P.P.P.P.P.P.P.P.P.P.P.P.P.P.P.P.P.P.P.P.P.P.P.",
"P.P.P.P.P.P.P.P.P.P.P.P.P.P.P.P.P.P.P.P.J.V.c.h.d.h.N.K.P.P.P.P.P.P.P.P.P.P.P.P.P.P.P.P.P.P.P.P.P.P.P.P.P.P.P.P.P.P.P.P.P.P.P.P.",
"P.P.P.P.P.P.P.P.P.P.P.P.P.P.P.P.P.P.L.n.w.3.<.,.2.t.m.J.P.P.P.P.P.P.P.P.P.P.P.P.P.P.P.P.P.L.L.P.P.G.C.J.P.P.P.P.P.P.P.P.P.P.P.P.",
"P.P.P.P.P.P.P.P.P.P.P.P.P.P.P.P.P.J.s.2.,.<.<.=...=.j.D.P.P.P.P.P.P.P.P.P.P.P.P.P.P.P.L.D.V.F.L.c.8.3.b.P.P.P.P.P.P.P.P.P.P.P.P.",
"P.P.P.P.P.P.P.P.P.P.P.P.P.P.P.P.P.V.2.<.<.2.>.^ h a I ;.g.Z.K.P.P.P.P.P.P.P.P.P.P.P.J.N.a.p.C.L.s.>.2.N.P.P.P.P.P.P.P.P.P.P.P.P.",
"P.P.P.P.P.P.P.P.P.P.P.P.P.P.P.P.P.J.a.3.8.t.:.m = % ; 0 V O.p.V.H.P.P.P.P.P.P.P.L.D.x.6.%.w.A.P.N.6.s.K.P.P.P.P.P.P.P.P.P.P.P.P.",
"P.P.P.P.P.P.P.P.P.P.P.P.P.P.P.P.P.P.K.V.N.m.*.f ; & % % = 4 k ( q.M.G.L.P.P.P.J.B.u.&.] @.j.K.P.L.D.K.P.P.P.P.P.P.P.P.P.P.P.P.P.",
"P.P.P.P.P.P.P.L.D.L.P.P.P.P.P.P.P.P.P.P.L.l.) r 8 < * % % % = < i L >.c.G.K.D.k.1. .` [ 1.V.P.P.P.P.P.P.P.P.P.P.P.P.P.P.P.P.P.P.",
"P.P.P.P.P.P.P.H.w.b.P.P.P.P.P.P.P.P.P.P.K.f.R w t q 3 - % % % % * > e V X.e.0.$.] _ _ { 9.D.P.P.P.P.P.P.P.P.P.P.P.P.P.P.P.P.P.P.",
"P.P.P.P.P.P.P.K.f.V.P.P.P.P.P.P.P.P.P.P.P.m.o.f e t e 6 > * % % $ $ % - q S _ [ _ ` ( ( 9.F.P.P.P.P.P.P.P.P.P.P.P.P.P.P.P.P.P.P.",
"P.P.P.P.P.P.P.P.P.P.P.P.P.P.P.P.P.P.P.P.P.H.d.) j r r r 9 3 ; % % % % # % u I ] ` _ E Y t.H.P.P.P.P.P.P.P.P.P.P.P.P.P.P.P.P.P.P.",
"P.P.P.P.P.P.L.K.P.P.P.P.P.P.P.P.P.P.P.P.P.P.G.g...B i r t e 7 < - & % $ & q J [ ` Q S R z.L.P.P.P.P.P.P.P.P.P.P.P.P.P.P.P.P.P.P.",
"P.P.P.P.L.G.z.w.j.D.P.P.P.P.P.P.P.P.P.P.P.P.P.K.m.<.P g r r t q 5 , - & % 4 A ' ~ S M @.A.P.P.P.P.P.P.P.P.P.P.P.P.P.P.P.P.P.P.P.",
"P.P.L.K.M.6.R x U 4.N.L.P.P.P.P.P.P.P.P.P.P.P.P.P.D.u.' n p t t t w 5 , - 1 n E S c E g.L.P.P.P.P.P.P.P.P.P.P.P.P.P.P.P.P.P.P.P.",
"P.L.S.i.[ x 2 & 1 k { s.F.P.P.P.P.P.P.P.P.P.P.P.P.P.K.n.1.Y l i y t t w 7 6 g n c U e.K.P.P.P.P.P.P.P.P.P.P.P.P.P.P.P.P.P.P.P.P.",
"L.m.:.Z 8 & % $ # & 9 D >.M.P.P.P.P.P.P.P.P.P.P.P.P.P.P.G.l.;.Y v f p u y r u l ~ u.J.P.P.P.P.P.P.P.P.P.P.P.P.P.P.P.P.P.P.P.P.P.",
"K.0.M = & % % % % $ $ > d / y.G.P.P.P.P.P.P.P.P.P.P.P.P.P.K.D.n.t.&.! Z l d b  .l.K.P.K.J.G.D.A.F.L.P.P.P.P.P.P.P.P.P.P.P.P.P.P.",
"K.2.x > ; % & % % % % $ & 6 N $.v.P.P.P.P.P.L.L.P.P.P.P.P.P.P.L.H.A.M.j.0.;.6.c.F.A.M.z.d.e.3.*.w.J.P.P.P.P.P.P.P.P.P.P.P.P.P.P.",
"L.q.A 9 6 : & & % % % % $ % : i E 0.S.P.P.P.G.C.L.P.P.P.P.P.P.P.P.P.P.K.C.l.s.i.0.<.&.o.} ` F g ) H.L.L.P.P.P.P.P.P.P.P.L.K.L.P.",
"P.f.Y r r 8 < = & % % % % % $ & 3 n o.j.L.P.A.k.C.P.P.P.P.P.P.P.P.P.P.L.H.S.B.b.z.j.h.g.g.t.J t ) V.C.D.J.P.P.P.P.L.H.Z.v.j.C.L.",
"P.N.{ s t y q 2 = % & % % % % $ $ - t U 5.V.G.j.i.K.P.P.P.P.P.P.P.P.P.P.L.L.L.P.P.P.P.P.P.N.' H $.f.l.N.F.P.P.K.D.m.d.8.-.%.0.m.",
"P.J.4.N r u y w 2 * % & % % % % % $ % < z  .d.j.>.B.P.P.P.P.P.P.P.P.P.P.P.P.P.P.P.P.P.P.L.V.y.e.h.v.N.A.G.F.B.j.e.<.@.} ` ` ..5.",
"P.P.z.` a t u u < % & & & % % % % % $ # * 9 H #.` 6.G.P.P.P.P.P.P.P.P.P.P.P.P.P.P.P.P.P.P.P.P.P.P.P.L.A.v.p.5.&.| ` ) ) _ ` ` } ",
"P.P.H.w.G y t t ; $ & & & & % % % % % $ @ O % 7 u S x.P.P.P.P.P.P.P.P.P.P.P.P.P.P.P.P.P.P.P.P.J.S.m.g.0.-...' ) ) _ ` ` ` ` ` ` ",
"P.P.P.Z.<.N y e - % & & & & % % % % $ @ o X .   . = O.M.P.P.P.P.P.P.P.P.P.P.P.P.P.P.P.P.K.G.C.z.t.,.o.] _ _ ` ` ` ` ` ` ` ` ` ` ",
"P.P.P.L.N.-.N u 2 % % % & & & & & % % $ # @ + + O # r Q u.F.P.P.P.P.P.P.P.P.P.P.P.L.J.D.n.p.2.@.{ ` _ ` ` ` ` ` ` ` ` ` ` ` ' ' ",
"P.P.P.P.L.N.>.D u : $ % % % % & & & & % % % % % % % & 3 v @.v.P.P.P.P.P.P.P.P.L.H.B.f.6.%.| ] ` ` _ ` ` ` ` ` ` ` ` ` ' ] ` ^ U ",
"P.P.P.P.P.L.C.6.Y d ; # % % % & & * & & % % % % % % $ $ - r I 8.S.P.P.P.P.K.Z.k.q.;.o.{ ` _ _ _ ` ` ` ` ` ` ` ` ` ' ] ` ~ U H Y ",
"P.P.P.P.P.P.L.D.u.] x ; @ % % % & ; 1 - % & % % % % % % $ $ 1 z | h.H.S.x.y.2.$.| ` ) _ _ ` ` ` ` ` ` ` ` ` ` ' ' ` ^ U S S ! 1.",
"P.P.P.P.P.P.P.P.J.z.=.m - @ $ % % > w 5 > * & & % % % % % $ # & q L 2.6.-...' ) ) _ ` ` ` ` ` ` ` ` ` ` ' ' ` _ ~ I A B J X.p.S.",
"P.P.P.P.P.P.P.P.P.P.V.6.b 2 % # $ 3 u r 9 2 ; & & % % % % % % $ # 1 L _ _ ) _ ` ` ` ` ` ` ` ` ` ` ` ` ' ` ) Q P Z m A _ 0.M.L.P.",
"P.P.P.P.P.P.P.P.P.P.P.H.2.Z q * $ 8 u u u e 8 < = & & % % % % % % , D ( ` ` ` ` ` ` ` ` ` ` ` ` ' ` _ / R J B v V ! 2.x.H.P.P.P.",
"P.P.P.P.P.P.P.P.P.P.P.P.D.:.Y a 5 t t y u u y e 7 , & & % % % % % 1 J ) ` ` ` ` ` ` ` ` ` ` ` _ / Q I A b x M ! >.j.G.L.P.P.P.P.",
"P.P.P.P.P.P.P.P.P.P.P.P.P.B.7.+.) m i t t y u u t w , & & & % % % 4 L ) ` ` ` ` ` ` ` ` ) / Q U D n l k B / ,.k.G.L.P.P.P.P.P.P.",
"P.P.P.P.P.P.P.P.P.P.P.P.P.P.J.H.m.5.Q z y r y y u u t 5 ; * & % % 6 I _ ` ` ` ` _ ( ! T K C c h d k D ' 6.v.H.K.L.P.P.P.P.P.P.P.",
"P.P.P.P.P.P.P.P.P.P.P.P.P.P.P.P.L.D.j.,.W x y e r y u y e 5 : & & 0 Y _ ) ^ E I G V c j s a h n Y $.u.B.H.P.P.P.P.P.P.P.P.P.P.P.",
"P.P.P.P.P.P.P.P.P.P.P.P.P.P.P.P.P.L.L.A.g.1._ C d r e r y u t 8 3 w N A N v l h s a p a x K | 7.l.A.J.L.P.P.P.P.P.P.P.P.P.P.P.P.",
"P.P.P.P.P.P.P.P.P.P.P.P.P.P.P.P.P.P.P.L.L.S.z.0.+.R m s r e y y t i g f a u t u s c H ] ,.a.m.B.x.k.m.K.P.P.P.P.P.P.P.P.P.P.P.P.",
"P.P.P.P.P.P.P.P.P.P.P.P.P.P.P.P.P.P.P.P.P.P.P.K.C.f.3.| I b s t t u u y u d c H _ -.t.v.F.A.s.5.<.,.1.d.L.P.P.P.P.P.P.P.P.P.P.P.",
"P.P.P.P.P.P.P.P.P.P.P.P.P.P.P.P.P.P.P.P.P.P.P.P.P.P.J.V.d.,.` D k a f b J _ -.t.b.H.P.P.C.9.,.<.<.<.<.3.C.P.P.P.P.P.P.P.P.P.P.P.",
"P.P.P.P.P.P.P.P.P.P.P.P.P.P.P.V.h.b.J.P.P.P.P.P.P.P.P.P.L.K.B.y.+.! ] >.s.B.L.P.P.P.P.L.u.,.<.<.<.<.<.<.c.P.P.P.P.P.P.P.P.P.P.P.",
"P.P.P.P.P.P.P.P.P.P.P.P.P.P.N.5.,.1.a.K.P.P.P.P.P.P.P.P.P.P.P.L.G.V.D.L.P.P.P.P.P.P.P.G.8.,.<.<.<.<.<.<.z.P.P.P.P.P.P.P.P.P.P.P.",
"P.P.P.P.P.P.P.P.P.P.P.P.P.P.p.,.<.<.1.b.P.P.P.P.P.P.P.P.P.P.P.P.P.L.P.P.P.P.P.P.P.P.P.H.0.,.<.<.<.<.<.1.n.P.P.P.P.P.P.P.P.P.P.P.",
"P.P.P.P.P.P.P.P.P.P.P.P.P.P.l.<.,.,.,.k.P.P.P.P.P.P.P.P.P.P.P.P.P.P.P.P.P.P.P.P.P.P.P.P.a.,.<.<.<.<.<.5.S.P.P.P.P.P.P.P.P.P.P.P.",
"P.P.P.P.P.P.P.P.P.P.P.P.P.P.J.h.e.w.a.D.P.P.P.P.P.P.P.P.P.P.P.P.P.P.P.P.P.P.P.P.P.P.P.P.C.6.,.<.<.<.,.i.L.P.P.P.P.P.P.P.P.P.P.P.",
"P.P.P.P.P.P.P.P.P.P.P.P.P.P.P.P.K.K.P.P.P.P.P.P.P.P.P.P.P.P.P.P.P.P.P.P.P.P.P.P.P.P.P.P.P.n.5.,.<.,.7.Z.P.P.P.P.P.P.P.P.P.P.P.P.",
"P.P.P.P.P.P.P.P.P.P.P.P.P.P.P.P.P.P.P.P.P.P.P.P.P.P.P.P.P.P.P.P.P.P.P.P.P.P.P.P.P.P.P.P.P.P.B.y.7.r.B.P.P.P.P.P.P.P.P.P.P.P.P.P.",
"P.P.P.P.P.P.P.P.P.P.P.P.P.P.P.P.P.P.P.P.P.P.P.P.P.P.P.P.P.P.P.P.P.P.P.P.P.P.P.P.P.P.P.P.P.P.P.K.G.K.P.P.P.P.P.P.P.P.P.P.P.P.P.P.",
"P.P.P.P.P.P.P.P.P.P.P.P.P.P.P.P.P.P.P.P.P.P.P.P.P.P.P.P.P.P.P.P.P.P.P.P.P.P.P.P.P.P.P.P.P.P.P.P.P.P.P.P.P.P.P.P.P.P.P.P.P.P.P.P.",
"P.P.P.P.P.P.P.P.P.P.P.P.P.P.P.P.P.P.P.P.P.P.P.P.P.P.P.P.P.P.P.P.P.P.P.P.P.P.P.P.P.P.P.P.P.P.P.P.P.P.P.P.P.P.P.P.P.P.P.P.P.P.P.P.",
"P.P.P.P.P.P.P.P.P.P.P.P.P.P.P.P.P.P.P.P.P.P.P.P.P.P.P.P.P.P.P.P.P.P.P.P.P.P.P.P.P.P.P.P.P.P.P.P.P.P.P.P.P.P.P.P.P.P.P.P.P.P.P.P."
};
